<svg xmlns="http://www.w3.org/2000/svg" version="1.1" xmlns:xlink="http://www.w3.org/1999/xlink" xmlns:svgjs="http://svgjs.dev/svgjs" width="100%" height="100%" viewBox="0 0 1000 600"><rect width="1000" height="600" x="0" y="0" fill="white"/><g><rect width="333.3333333333333" height="333.3333333333333" y="265.25920824527" fill="white" transform="matrix(0.514325006190484,0,0,0.514325006190484,-37.673942516209,77.8497190960957)" x="393.8565673828125"/><path d="M329.52672506923744 473.52931978452204L329.52672506923744 403.25648734122905L316.2862817094765 403.25648734122905L316.2862817094765 392.2264320464861L329.52672506923744 392.2264320464861L329.52672506923744 375.83454431679866Q329.52672506923744 367.32126751192754 333.9256161689266 362.1345153197568Q338.3463922989624 356.92587809723926 347.3192547411145 356.92587809723926L347.3192547411145 356.92587809723926L359.6186417959667 356.92587809723926L359.6186417959667 367.9559333919822L342.13250254894365 367.9559333919822L342.13250254894365 392.2264320464861L359.6186417959667 392.2264320464861L359.6186417959667 403.25648734122905L342.13250254894365 403.25648734122905L342.13250254894365 473.52931978452204L329.52672506923744 473.52931978452204ZM388.7695022177874 473.52931978452204L376.1637247380812 473.52931978452204L376.1637247380812 392.2264320464861L388.7695022177874 392.2264320464861L388.7695022177874 407.1957928036373L389.55736331026907 407.1957928036373Q391.767751375287 401.3524897010651 397.4359742350855 396.80040338894895Q403.10419709488394 392.2264320464861 413.04000087229133 392.2264320464861L413.04000087229133 392.2264320464861L417.92036263960813 392.2264320464861L417.92036263960813 404.83220952619234L410.5013373520727 404.83220952619234Q400.2591431498114 404.83220952619234 394.52526519897276 408.6839748672137Q388.7695022177874 412.55762523858175 388.7695022177874 418.3790433108072L388.7695022177874 418.3790433108072L388.7695022177874 473.52931978452204ZM463.7695012159703 475.4114323943393L463.7695012159703 475.4114323943393Q455.40941962352616 475.4114323943393 448.71260033743226 472.4350682671864Q442.0157810513383 469.43681910968684 437.22295940540835 463.8342513409285Q432.4082527291316 458.2535686025169 429.80393411787287 450.4406127687406Q427.22150053696083 442.6495419653111 427.22150053696083 432.8669334003307L427.22150053696083 432.8669334003307Q427.22150053696083 423.259405078124 429.80393411787287 415.38079415330765Q432.4082527291316 407.5021832284912 437.22295940540835 401.9215004900796Q442.0157810513383 396.3189327213213 448.71260033743226 393.3206835638217Q455.40941962352616 390.32243440632215 463.7695012159703 390.32243440632215L463.7695012159703 390.32243440632215Q471.9545025656406 390.32243440632215 478.4324715482675 393.3206835638217Q484.88855550054757 396.3189327213213 489.46252684301044 401.59322503487897Q494.01461315512654 406.8675173484366 496.4657365539583 414.13334742354505Q498.9168599527901 421.3772924683068 498.9168599527901 430.0437644856048L498.9168599527901 430.0437644856048L498.9168599527901 436.0183777702573L440.440058866375 436.0183777702573L440.440058866375 439.8044880202385Q440.440058866375 445.013125242756 442.10332117272515 449.499556463832Q443.7665834790753 453.985987684908 446.830487727615 457.2906272672616Q449.8943919761547 460.61715187996185 454.4027082275774 462.4992644897791Q458.8891394486534 464.3813770995963 464.55736230845184 464.3813770995963L464.55736230845184 464.3813770995963Q472.2827780208413 464.3813770995963 478.0385410020266 460.7703470923888Q483.7724189528652 457.13743205483456 486.9238633227918 450.3749576777005L486.9238633227918 450.3749576777005L495.91861079529053 456.83104162998063Q491.9793053328823 465.16923819207796 483.6192237404382 470.2903352932086Q475.2810271783409 475.4114323943393 463.7695012159703 475.4114323943393ZM463.7695012159703 400.89290406378416L463.7695012159703 400.89290406378416Q458.5608639934527 400.89290406378416 454.3151681061905 402.70936158256126Q450.06947221892835 404.50393407099165 446.98368294004194 407.8304586836919Q443.91977869150224 411.1350982660455 442.190861294112 415.6215294871215Q440.440058866375 420.1079607081975 440.440058866375 425.469793143142L440.440058866375 425.469793143142L440.440058866375 426.5640446604776L485.3481411378285 426.5640446604776L485.3481411378285 424.8351272630873Q485.3481411378285 413.9582671807714 479.4391829442162 407.4365281374511Q473.5302247506039 400.89290406378416 463.7695012159703 400.89290406378416ZM526.0105275220199 373.1645706144998L526.0105275220199 373.1645706144998Q521.9180268471846 373.1645706144998 520.1015693284075 371.19491788329566Q518.2851118096304 369.22526515209154 518.2851118096304 366.073820782165L518.2851118096304 366.073820782165L518.2851118096304 364.01662792957404Q518.2851118096304 360.86518355964745 520.1015693284075 358.8955308284434Q521.9180268471846 356.92587809723926 526.0105275220199 356.92587809723926L526.0105275220199 356.92587809723926Q530.103028196855 356.92587809723926 531.9194857156322 358.8955308284434Q533.7359432344092 360.86518355964745 533.7359432344092 364.01662792957404L533.7359432344092 364.01662792957404L533.7359432344092 366.073820782165Q533.7359432344092 369.22526515209154 531.9194857156322 371.19491788329566Q530.103028196855 373.1645706144998 526.0105275220199 373.1645706144998ZM519.7076387821667 473.52931978452204L519.7076387821667 392.2264320464861L532.3134162618729 392.2264320464861L532.3134162618729 473.52931978452204L519.7076387821667 473.52931978452204ZM627.6446084521515 482.50218222667405L627.6446084521515 482.50218222667405Q627.6446084521515 495.10795970638026 617.7963447961309 501.01691789999256Q607.9480811401105 506.92587609360487 588.2515538280694 506.92587609360487L588.2515538280694 506.92587609360487Q569.189692396083 506.92587609360487 560.829610803639 501.73912390143414Q552.4914142415416 496.5304866789166 552.4914142415416 486.92295835670996L552.4914142415416 486.92295835670996Q552.4914142415416 480.31367919200284 555.9492490363222 476.59322403306174Q559.4070838311027 472.8946539044674 565.4035821461018 471.1657365070771L565.4035821461018 471.1657365070771L565.4035821461018 469.43681910968684Q558.1596371013401 465.9570992845596 558.1596371013401 458.07848835974323L558.1596371013401 458.07848835974323Q558.1596371013401 451.9506798626638 562.0989425637483 448.71169537135034Q566.0382480261565 445.47271088003697 572.1879415535826 443.8969886950737L572.1879415535826 443.8969886950737L572.1879415535826 443.28420784536576Q564.9221114784742 439.8044880202385 560.9171509250259 433.34840406795837Q556.8903053412308 426.8923201156783 556.8903053412308 418.3790433108072L556.8903053412308 418.3790433108072Q556.8903053412308 412.22934978338105 559.1006934062488 407.04259759121027Q561.3110814712667 401.8339603686928 565.316042024715 398.1353902400984Q569.3428876085101 394.43682011150406 574.9454553772683 392.3796272589131Q580.5261381156799 390.32243440632215 587.4636927355878 390.32243440632215L587.4636927355878 390.32243440632215Q596.1301647528859 390.32243440632215 602.9145241603666 393.4738787762487L602.9145241603666 393.4738787762487L602.9145241603666 392.0732368340591Q602.9145241603666 387.3460702791693 605.1030271950378 384.2602810002828Q607.3134152600558 381.1963767517432 612.3688572701463 381.1963767517432L612.3688572701463 381.1963767517432L624.4931640822248 381.1963767517432L624.4931640822248 392.2264320464861L609.0423326574461 392.2264320464861L609.0423326574461 397.4131842386569Q613.4631087874819 401.19929448863815 615.9142321863137 406.47358680219577Q618.3434705547988 411.7697641461001 618.3434705547988 418.3790433108072L618.3434705547988 418.3790433108072Q618.3434705547988 424.5287368382334 616.1330824897808 429.71548903040417Q613.9445794551096 434.92412625292167 609.9177338713146 438.62269638151605Q605.8908882875195 442.3212665101104 600.222665427721 444.37845936270134Q594.5544425679226 446.4356522152923 587.6168879480148 446.4356522152923L587.6168879480148 446.4356522152923Q583.6775824856065 446.4356522152923 579.7382770231984 445.64779112281064L579.7382770231984 445.64779112281064Q575.6457763483631 446.7420426401463 572.3411367660096 448.86489058377737Q569.0364971836561 450.98773852740845 569.0364971836561 454.7738487773897L569.0364971836561 454.7738487773897Q569.0364971836561 458.40676381494393 572.4943319784365 459.6542105447065Q575.9521667732172 460.9235423048158 581.4671944205886 460.9235423048158L581.4671944205886 460.9235423048158L598.8001384551848 460.9235423048158Q613.9445794551096 460.9235423048158 620.7945939536305 466.6793052860011Q627.6446084521515 472.4350682671864 627.6446084521515 482.50218222667405ZM615.8266920649269 483.4651235619294L615.8266920649269 483.4651235619294Q615.8266920649269 478.56287676426587 612.1281219363325 475.65216772815313Q608.4295518077381 472.7414586920404 598.9752186979583 472.7414586920404L598.9752186979583 472.7414586920404L571.8596660983819 472.7414586920404Q564.3093306287662 476.1992934868209 564.3093306287662 483.77151398678336L564.3093306287662 483.77151398678336Q564.3093306287662 489.1333464217279 568.3142911822146 492.9194566717091Q572.3411367660096 496.68368189134355 581.9486650882163 496.68368189134355L581.9486650882163 496.68368189134355L593.6133862630139 496.68368189134355Q604.1619708901292 496.68368189134355 610.0052739927014 493.37904230899005Q615.8266920649269 490.0744027266365 615.8266920649269 483.4651235619294ZM587.6168879480148 436.346653225458L587.6168879480148 436.346653225458Q595.6486940852582 436.346653225458 600.3758606401481 432.4730028540899Q605.1030271950378 428.62123751306854 605.1030271950378 420.58943137582514L605.1030271950378 420.58943137582514L605.1030271950378 416.1686552457893Q605.1030271950378 408.1368491085459 600.3758606401481 404.28508376752455Q595.6486940852582 400.4114333961565 587.6168879480148 400.4114333961565L587.6168879480148 400.4114333961565Q579.5850818107714 400.4114333961565 574.8579152558815 404.28508376752455Q570.1307487009917 408.1368491085459 570.1307487009917 416.1686552457893L570.1307487009917 416.1686552457893L570.1307487009917 420.58943137582514Q570.1307487009917 428.62123751306854 574.8579152558815 432.4730028540899Q579.5850818107714 436.346653225458 587.6168879480148 436.346653225458ZM642.3075787844487 473.52931978452204L642.3075787844487 356.92587809723926L654.9133562641548 356.92587809723926L654.9133562641548 405.466875406247L655.5261371138629 405.466875406247Q658.5243862713623 398.5293207863392 663.9737588276937 394.43682011150406Q669.4012463536783 390.32243440632215 678.549189038604 390.32243440632215L678.549189038604 390.32243440632215Q691.1549665183104 390.32243440632215 698.4645666541123 398.4417806649524Q705.7960518202608 406.5611269235826 705.7960518202608 421.3772924683068L705.7960518202608 421.3772924683068L705.7960518202608 473.52931978452204L693.1902743405547 473.52931978452204L693.1902743405547 423.5876805333247Q693.1902743405547 401.6807651562658 674.7630787886228 401.6807651562658L674.7630787886228 401.6807651562658Q670.9769685386416 401.6807651562658 667.4315936224743 402.6218214611744Q663.8862187063069 403.56287776608303 661.0411647612343 405.466875406247Q658.2179958465085 407.34898801606425 656.5547335401584 410.259697052177Q654.9133562641548 413.1704060882897 654.9133562641548 417.1097115506979L654.9133562641548 417.1097115506979L654.9133562641548 473.52931978452204L642.3075787844487 473.52931978452204ZM765.5202996364385 473.52931978452204L749.7630777868058 473.52931978452204Q743.1537986220985 473.52931978452204 739.7616189183582 469.83074965592766Q736.3694392146178 466.1321795273333 736.3694392146178 460.13568121233413L736.3694392146178 460.13568121233413L736.3694392146178 403.25648734122905L722.9758006424299 403.25648734122905L722.9758006424299 392.2264320464861L730.5480211423924 392.2264320464861Q734.6405218172276 392.2264320464861 736.1287038808041 390.563169740136Q737.6387709747271 388.9217924641326 737.6387709747271 384.80740675895066L737.6387709747271 384.80740675895066L737.6387709747271 369.6848507893725L748.975216694324 369.6848507893725L748.975216694324 392.2264320464861L766.7896313965477 392.2264320464861L766.7896313965477 403.25648734122905L748.975216694324 403.25648734122905L748.975216694324 462.4992644897791L765.5202996364385 462.4992644897791L765.5202996364385 473.52931978452204ZM795.1526307258869 475.4114323943393L795.1526307258869 475.4114323943393Q790.0971887157964 475.4114323943393 787.8211455597384 472.8946539044674Q785.5232173733334 470.37787541459545 785.5232173733334 466.2853747397603L785.5232173733334 466.2853747397603L785.5232173733334 464.22818188716934Q785.5232173733334 460.13568121233413 787.8211455597384 457.6189027224623Q790.0971887157964 455.1021242325903 795.1526307258869 455.1021242325903L795.1526307258869 455.1021242325903Q800.1861877056306 455.1021242325903 802.4622308616888 457.6189027224623Q804.7601590480936 460.13568121233413 804.7601590480936 464.22818188716934L804.7601590480936 464.22818188716934L804.7601590480936 466.2853747397603Q804.7601590480936 470.37787541459545 802.4622308616888 472.8946539044674Q800.1861877056306 475.4114323943393 795.1526307258869 475.4114323943393Z " fill="maroon" transform="matrix(0.514325006190484,0,0,0.514325006190484,-37.673942516209,77.8497190960957)"/><path d="M823.9319081096953 495.7556646713381L823.9319081096953 392.6749913772738L836.6978654989409 392.6749913772738L836.6978654989409 487.77694130305963Q836.6978654989409 496.3983951648939 832.3982201282575 501.6510547156772Q828.0764116371067 506.92587738692794 818.8343904021841 506.92587738692794L818.8343904021841 506.92587738692794L810.5232202268941 506.92587738692794L810.5232202268941 495.7556646713381L823.9319081096953 495.7556646713381ZM830.3148868043181 373.37091345013334L830.3148868043181 373.37091345013334Q826.1703832769068 373.37091345013334 824.3308442781092 371.37623260806373Q822.4913052793117 369.3815517659941 822.4913052793117 366.1900624186827L822.4913052793117 366.1900624186827L822.4913052793117 364.10672909474334Q822.4913052793117 360.915239747432 824.3308442781092 358.9205589053623Q826.1703832769068 356.9258780632927 830.3148868043181 356.9258780632927L830.3148868043181 356.9258780632927Q834.4593903317295 356.9258780632927 836.298929330527 358.9205589053623Q838.1384683293245 360.915239747432 838.1384683293245 364.10672909474334L838.1384683293245 364.10672909474334L838.1384683293245 366.1900624186827Q838.1384683293245 369.3815517659941 836.298929330527 371.37623260806373Q834.4593903317295 373.37091345013334 830.3148868043181 373.37091345013334ZM876.5914823403333 475.0109839138141L863.8255249510878 475.0109839138141L863.8255249510878 392.6749913772738L876.5914823403333 392.6749913772738L876.5914823403333 406.0836792600751L877.234212833889 406.0836792600751Q880.2705603379284 399.05797007189653 885.7670142138536 394.91346654448523Q891.2634680897787 390.74679989660643 900.5276524451688 390.74679989660643L900.5276524451688 390.74679989660643Q913.2936098344143 390.74679989660643 920.7182551910067 398.9693175900268Q928.1429005475992 407.19183528344706 928.1429005475992 422.19626783990407L928.1429005475992 422.19626783990407L928.1429005475992 475.0109839138141L915.3769431583537 475.0109839138141L915.3769431583537 424.43474300711557Q915.3769431583537 402.24945941920794 896.6934326043015 402.24945941920794L896.6934326043015 402.24945941920794Q892.8592127634344 402.24945941920794 889.268787247709 403.20247359930784Q885.6783617319837 404.1554877794078 882.8193191916839 406.0836792600751Q879.9381135309168 407.98970762027494 878.2758794958587 410.93740264244445Q876.5914823403333 413.885097664614 876.5914823403333 417.87445934875325L876.5914823403333 417.87445934875325L876.5914823403333 475.0109839138141ZM1021.4939639564573 475.0109839138141L1014.3131129250066 475.0109839138141Q1007.132261893556 475.0109839138141 1004.0072619076469 471.1767640729469Q1000.9044250422053 467.3425442320798 1000.1065527053775 461.60229603101277L1000.1065527053775 461.60229603101277L999.3086803685496 461.60229603101277Q996.5826165510546 469.27073571274707 990.3769428201713 473.1049555536142Q984.1491059688205 476.9170122740139 975.5276521069864 476.9170122740139L975.5276521069864 476.9170122740139Q962.4514110311966 476.9170122740139 955.1819075178762 470.223749892847Q947.9124040045558 463.53048751168006 947.9124040045558 452.0278279890786L947.9124040045558 452.0278279890786Q947.9124040045558 440.3921897436725 956.4673685049877 434.1643528923218Q965.0001698849522 427.9365160409711 983.0187868249811 427.9365160409711L983.0187868249811 427.9365160409711L999.3086803685496 427.9365160409711L999.3086803685496 419.80265082942054Q999.3086803685496 411.0260551243142 994.5214463475826 406.39396294661924Q989.7342123266155 401.76187076892427 979.8272974776697 401.76187076892427L979.8272974776697 401.76187076892427Q972.336162759675 401.76187076892427 967.3051344135661 405.1085019595077Q962.2741060674571 408.4772962705586 958.9274748768736 414.06240262835354L958.9274748768736 414.06240262835354L951.2811983156067 406.8815515969029Q954.6278295061902 400.1661260952685 961.9638223809129 395.4675445561712Q969.2998152556356 390.74679989660643 980.4700279712255 390.74679989660643L980.4700279712255 390.74679989660643Q995.4744605276825 390.74679989660643 1003.7634675825052 398.1049558917966Q1012.0746377577952 405.44094876651934 1012.0746377577952 418.51718984230905L1012.0746377577952 418.51718984230905L1012.0746377577952 463.8407711982242L1021.4939639564573 463.8407711982242L1021.4939639564573 475.0109839138141ZM977.6109854309257 466.07924636543567L977.6109854309257 466.07924636543567Q982.3982194518928 466.07924636543567 986.3875811360319 464.94892722159625Q990.3769428201713 463.8407711982242 993.2359853604711 461.75743787428485Q996.1171910212382 459.6962676708129 997.712935694894 456.9702038533178Q999.3086803685496 454.26630315629006 999.3086803685496 451.07481380897866L999.3086803685496 451.07481380897866L999.3086803685496 437.5109840829053L982.3982194518928 437.5109840829053Q971.3831485795749 437.5109840829053 966.352120233466 440.7024734302166Q961.3210918873572 443.89396277752803 961.3210918873572 449.9666577856067L961.3210918873572 449.9666577856067L961.3210918873572 453.31328897619017Q961.3210918873572 459.3638208638013 965.7093897399103 462.7326151748522Q970.0976875924634 466.07924636543567 977.6109854309257 466.07924636543567ZM1039.6677227397581 506.92587738692794L1039.6677227397581 392.6749913772738L1052.4336801290037 392.6749913772738L1052.4336801290037 406.0836792600751L1053.0764106225597 406.0836792600751Q1056.267899969871 398.2600977350687 1062.407084339352 394.5145303760713Q1068.5684318293002 390.74679989660643 1077.1677225706671 390.74679989660643L1077.1677225706671 390.74679989660643Q1084.8361622524014 390.74679989660643 1091.063999103752 393.78314740064576Q1097.2918359551027 396.8194949046851 1101.680133807656 402.40460126248Q1106.0684316602092 407.98970762027494 1108.3733961888229 415.9684309885534Q1110.6783607174366 423.9471543568319 1110.6783607174366 433.8319060853102L1110.6783607174366 433.8319060853102Q1110.6783607174366 443.73882093425595 1108.3733961888229 451.7175443025344Q1106.0684316602092 459.6962676708129 1101.680133807656 465.28137402860784Q1097.2918359551027 470.86648038640277 1091.063999103752 473.90282789044204Q1084.8361622524014 476.9170122740139 1077.1677225706671 476.9170122740139L1077.1677225706671 476.9170122740139Q1060.4124034972824 476.9170122740139 1053.0764106225597 461.60229603101277L1053.0764106225597 461.60229603101277L1052.4336801290037 461.60229603101277L1052.4336801290037 506.92587738692794L1039.6677227397581 506.92587738692794ZM1073.6659495368115 465.4365158718799L1073.6659495368115 465.4365158718799Q1084.5258785658573 465.4365158718799 1090.7315522967406 458.6546010088432Q1096.9593891480913 451.87268614580654 1096.9593891480913 440.85761527348876L1096.9593891480913 440.85761527348876L1096.9593891480913 426.8283600175991Q1096.9593891480913 415.8132891452813 1090.7315522967406 409.03137428224466Q1084.5258785658573 402.24945941920794 1073.6659495368115 402.24945941920794L1073.6659495368115 402.24945941920794Q1069.366304166128 402.24945941920794 1065.4434318433912 403.44626792444967Q1061.5427226411216 404.64307642969146 1058.6615169803545 406.7042466331634Q1055.8024744400545 408.78757995710276 1054.1180772845291 411.73527497927233Q1052.4336801290037 414.68297000144184 1052.4336801290037 418.05176431249276L1052.4336801290037 418.05176431249276L1052.4336801290037 448.68119679849514Q1052.4336801290037 452.67055848263436 1054.1180772845291 455.773395348076Q1055.8024744400545 458.8983953339851 1058.6615169803545 461.0482180193268Q1061.5427226411216 463.1980407046685 1065.4434318433912 464.32835984850794Q1069.366304166128 465.4365158718799 1073.6659495368115 465.4365158718799ZM1163.3379349480745 476.9170122740139L1163.3379349480745 476.9170122740139Q1155.0489278932519 476.9170122740139 1148.1783605483454 473.90282789044204Q1141.3299563239066 470.86648038640277 1136.4540698210697 465.1927215467381Q1131.6003464387002 459.5411258275408 1128.874282621205 451.62889182066465Q1126.1703819241773 443.73882093425595 1126.1703819241773 433.8319060853102L1126.1703819241773 433.8319060853102Q1126.1703819241773 424.102296200104 1128.874282621205 416.12357283182547Q1131.6003464387002 408.144849463547 1136.4540698210697 402.4932537443498Q1141.3299563239066 396.8194949046851 1148.1783605483454 393.78314740064576Q1155.0489278932519 390.74679989660643 1163.3379349480745 390.74679989660643L1163.3379349480745 390.74679989660643Q1171.6491051233647 390.74679989660643 1178.4310199864012 393.78314740064576Q1185.212934849438 396.8194949046851 1190.1553107136772 402.4932537443498Q1195.0976865779164 408.144849463547 1197.8237503954115 416.12357283182547Q1200.527651092439 424.102296200104 1200.527651092439 433.8319060853102L1200.527651092439 433.8319060853102Q1200.527651092439 443.73882093425595 1197.8237503954115 451.62889182066465Q1195.0976865779164 459.5411258275408 1190.1553107136772 465.1927215467381Q1185.212934849438 470.86648038640277 1178.4310199864012 473.90282789044204Q1171.6491051233647 476.9170122740139 1163.3379349480745 476.9170122740139ZM1163.3379349480745 465.591657715152L1163.3379349480745 465.591657715152Q1173.7102753268366 465.591657715152 1180.270558985199 459.20867902052925Q1186.8086795230938 452.82570032590644 1186.8086795230938 439.74945925011673L1186.8086795230938 439.74945925011673L1186.8086795230938 427.9365160409711Q1186.8086795230938 414.8602749651814 1180.270558985199 408.4772962705586Q1173.7102753268366 402.09431757593586 1163.3379349480745 402.09431757593586L1163.3379349480745 402.09431757593586Q1152.9655945693125 402.09431757593586 1146.4274740314177 408.4772962705586Q1139.8893534935228 414.8602749651814 1139.8893534935228 427.9365160409711L1139.8893534935228 427.9365160409711L1139.8893534935228 439.74945925011673Q1139.8893534935228 452.82570032590644 1146.4274740314177 459.20867902052925Q1152.9655945693125 465.591657715152 1163.3379349480745 465.591657715152ZM1246.4939629419102 475.0109839138141L1235.1464452625808 475.0109839138141Q1228.4531828814138 475.0109839138141 1225.0178992089607 471.2654165548167Q1221.5826155365073 467.5198491958193 1221.5826155365073 461.75743787428485L1221.5826155365073 461.75743787428485L1221.5826155365073 356.9258780632927L1234.348572925753 356.9258780632927L1234.348572925753 463.8407711982242L1246.4939629419102 463.8407711982242L1246.4939629419102 475.0109839138141ZM1271.3831472268455 373.37091345013334L1271.3831472268455 373.37091345013334Q1267.238643699434 373.37091345013334 1265.3991047006366 371.37623260806373Q1263.5595657018391 369.3815517659941 1263.5595657018391 366.1900624186827L1263.5595657018391 366.1900624186827L1263.5595657018391 364.10672909474334Q1263.5595657018391 360.915239747432 1265.3991047006366 358.9205589053623Q1267.238643699434 356.9258780632927 1271.3831472268455 356.9258780632927L1271.3831472268455 356.9258780632927Q1275.5276507542567 356.9258780632927 1277.3671897530544 358.9205589053623Q1279.2067287518519 360.915239747432 1279.2067287518519 364.10672909474334L1279.2067287518519 364.10672909474334L1279.2067287518519 366.1900624186827Q1279.2067287518519 369.3815517659941 1277.3671897530544 371.37623260806373Q1275.5276507542567 373.37091345013334 1271.3831472268455 373.37091345013334ZM1265.0001685322227 475.0109839138141L1265.0001685322227 392.6749913772738L1277.7661259214683 392.6749913772738L1277.7661259214683 475.0109839138141L1265.0001685322227 475.0109839138141ZM1339.0471540139404 475.0109839138141L1323.0897072773835 475.0109839138141Q1316.374281775749 475.0109839138141 1312.938998103296 471.2654165548167Q1309.52587755131 467.5198491958193 1309.52587755131 461.4471541877407L1309.52587755131 461.4471541877407L1309.52587755131 403.84520409286364L1295.9620478252368 403.84520409286364L1295.9620478252368 392.6749913772738L1303.6083243865037 392.6749913772738Q1307.7528279139149 392.6749913772738 1309.2820832261682 390.9905942217483Q1310.789175417954 389.3283601866903 1310.789175417954 385.1616935388115L1310.789175417954 385.1616935388115L1310.789175417954 369.84697729581035L1322.2918349405556 369.84697729581035L1322.2918349405556 392.6749913772738L1340.3104518805844 392.6749913772738L1340.3104518805844 403.84520409286364L1322.2918349405556 403.84520409286364L1322.2918349405556 463.8407711982242L1339.0471540139404 463.8407711982242L1339.0471540139404 475.0109839138141ZM1427.9212670883755 475.0109839138141L1420.740416056925 475.0109839138141Q1413.5595650254745 475.0109839138141 1410.4567281600328 471.1767640729469Q1407.3317281741238 467.3425442320798 1406.533855837296 461.60229603101277L1406.533855837296 461.60229603101277L1405.7359835004681 461.60229603101277Q1403.0320828034405 469.27073571274707 1396.8042459520898 473.1049555536142Q1390.576409100739 476.9170122740139 1381.9549552389046 476.9170122740139L1381.9549552389046 476.9170122740139Q1368.878714163115 476.9170122740139 1361.6092106497945 470.223749892847Q1354.3618702569415 463.53048751168006 1354.3618702569415 452.0278279890786L1354.3618702569415 452.0278279890786Q1354.3618702569415 440.3921897436725 1362.894671636906 434.1643528923218Q1371.4274730168704 427.9365160409711 1389.4682530773669 427.9365160409711L1389.4682530773669 427.9365160409711L1405.7359835004681 427.9365160409711L1405.7359835004681 419.80265082942054Q1405.7359835004681 411.0260551243142 1400.948749479501 406.39396294661924Q1396.1615154585338 401.76187076892427 1386.2767637300556 401.76187076892427L1386.2767637300556 401.76187076892427Q1378.7634658915931 401.76187076892427 1373.7546006659518 405.1085019595077Q1368.7235723198428 408.4772962705586 1365.3769411292592 414.06240262835354L1365.3769411292592 414.06240262835354L1357.7085014475251 406.8815515969029Q1361.0551326381087 400.1661260952685 1368.3911255128312 395.4675445561712Q1375.7492815080213 390.74679989660643 1386.9194942236113 390.74679989660643L1386.9194942236113 390.74679989660643Q1401.9017636596009 390.74679989660643 1410.212933834891 398.1049558917966Q1418.5019408897135 405.44094876651934 1418.5019408897135 418.51718984230905L1418.5019408897135 418.51718984230905L1418.5019408897135 463.8407711982242L1427.9212670883755 463.8407711982242L1427.9212670883755 475.0109839138141ZM1384.038288562844 466.07924636543567L1384.038288562844 466.07924636543567Q1388.825522583811 466.07924636543567 1392.8148842679504 464.94892722159625Q1396.8042459520898 463.8407711982242 1399.685451612857 461.75743787428485Q1402.5444941531566 459.6962676708129 1404.1402388268125 456.9702038533178Q1405.7359835004681 454.26630315629006 1405.7359835004681 451.07481380897866L1405.7359835004681 451.07481380897866L1405.7359835004681 437.5109840829053L1388.825522583811 437.5109840829053Q1377.8104517114934 437.5109840829053 1372.7794233653844 440.7024734302166Q1367.770558139743 443.89396277752803 1367.770558139743 449.9666577856067L1367.770558139743 449.9666577856067L1367.770558139743 453.31328897619017Q1367.770558139743 459.3638208638013 1372.1588559922961 462.7326151748522Q1376.5471538448492 466.07924636543567 1384.038288562844 466.07924636543567ZM1458.8831463813897 475.0109839138141L1446.117188992144 475.0109839138141L1446.117188992144 392.6749913772738L1458.8831463813897 392.6749913772738L1458.8831463813897 406.0836792600751L1459.5258768749452 406.0836792600751Q1462.540061258517 399.05797007189653 1468.0586782549099 394.91346654448523Q1473.555132130835 390.74679989660643 1482.819316486225 390.74679989660643L1482.819316486225 390.74679989660643Q1495.5852738754704 390.74679989660643 1503.0099192320629 398.9693175900268Q1510.4124014681881 407.19183528344706 1510.4124014681881 422.19626783990407L1510.4124014681881 422.19626783990407L1510.4124014681881 475.0109839138141L1497.6464440789425 475.0109839138141L1497.6464440789425 424.43474300711557Q1497.6464440789425 402.24945941920794 1478.9850966453578 402.24945941920794L1478.9850966453578 402.24945941920794Q1475.1508768044907 402.24945941920794 1471.5604512887653 403.20247359930784Q1467.97002577304 404.1554877794078 1465.1109832327404 406.0836792600751Q1462.229777571973 407.98970762027494 1460.5453804164474 410.93740264244445Q1458.8831463813897 413.885097664614 1458.8831463813897 417.87445934875325L1458.8831463813897 417.87445934875325L1458.8831463813897 475.0109839138141ZM1567.859209719793 476.9170122740139L1567.859209719793 476.9170122740139Q1559.5702026649703 476.9170122740139 1552.6996353200639 473.90282789044204Q1545.851231095625 470.86648038640277 1540.975344592788 465.1927215467381Q1536.1216212104187 459.5411258275408 1533.3955573929236 451.62889182066465Q1530.691656695896 443.73882093425595 1530.691656695896 433.8319060853102L1530.691656695896 433.8319060853102Q1530.691656695896 424.102296200104 1533.3955573929236 416.12357283182547Q1536.1216212104187 408.144849463547 1540.975344592788 402.4932537443498Q1545.851231095625 396.8194949046851 1552.6996353200639 393.78314740064576Q1559.5702026649703 390.74679989660643 1567.859209719793 390.74679989660643L1567.859209719793 390.74679989660643Q1576.170379895083 390.74679989660643 1582.9522947581197 393.78314740064576Q1589.7342096211564 396.8194949046851 1594.6765854853957 402.4932537443498Q1599.618961349635 408.144849463547 1602.34502516713 416.12357283182547Q1605.0489258641576 424.102296200104 1605.0489258641576 433.8319060853102L1605.0489258641576 433.8319060853102Q1605.0489258641576 443.73882093425595 1602.34502516713 451.62889182066465Q1599.618961349635 459.5411258275408 1594.6765854853957 465.1927215467381Q1589.7342096211564 470.86648038640277 1582.9522947581197 473.90282789044204Q1576.170379895083 476.9170122740139 1567.859209719793 476.9170122740139ZM1567.859209719793 465.591657715152L1567.859209719793 465.591657715152Q1578.2315500985549 465.591657715152 1584.7918337569174 459.20867902052925Q1591.3299542948123 452.82570032590644 1591.3299542948123 439.74945925011673L1591.3299542948123 439.74945925011673L1591.3299542948123 427.9365160409711Q1591.3299542948123 414.8602749651814 1584.7918337569174 408.4772962705586Q1578.2315500985549 402.09431757593586 1567.859209719793 402.09431757593586L1567.859209719793 402.09431757593586Q1557.486869341031 402.09431757593586 1550.9487488031361 408.4772962705586Q1544.4106282652413 414.8602749651814 1544.4106282652413 427.9365160409711L1544.4106282652413 427.9365160409711L1544.4106282652413 439.74945925011673Q1544.4106282652413 452.82570032590644 1550.9487488031361 459.20867902052925Q1557.486869341031 465.591657715152 1567.859209719793 465.591657715152ZM1631.0684292929325 476.9170122740139L1631.0684292929325 476.9170122740139Q1625.9487484649537 476.9170122740139 1623.64378393634 474.3682534202583Q1621.3166562872586 471.8194945665027 1621.3166562872586 467.67499103909137L1621.3166562872586 467.67499103909137L1621.3166562872586 465.591657715152Q1621.3166562872586 461.4471541877407 1623.64378393634 458.8983953339851Q1625.9487484649537 456.34963648022944 1631.0684292929325 456.34963648022944L1631.0684292929325 456.34963648022944Q1636.1659470004438 456.34963648022944 1638.4709115290575 458.8983953339851Q1640.7980391781387 461.4471541877407 1640.7980391781387 465.591657715152L1640.7980391781387 465.591657715152L1640.7980391781387 467.67499103909137Q1640.7980391781387 471.8194945665027 1638.4709115290575 474.3682534202583Q1636.1659470004438 476.9170122740139 1631.0684292929325 476.9170122740139ZM1672.7129326512525 373.37091345013334L1672.7129326512525 373.37091345013334Q1668.5684291238415 373.37091345013334 1666.7288901250438 371.37623260806373Q1664.889351126246 369.3815517659941 1664.889351126246 366.1900624186827L1664.889351126246 366.1900624186827L1664.889351126246 364.10672909474334Q1664.889351126246 360.915239747432 1666.7288901250438 358.9205589053623Q1668.5684291238415 356.9258780632927 1672.7129326512525 356.9258780632927L1672.7129326512525 356.9258780632927Q1676.8574361786639 356.9258780632927 1678.6969751774616 358.9205589053623Q1680.5365141762588 360.915239747432 1680.5365141762588 364.10672909474334L1680.5365141762588 364.10672909474334L1680.5365141762588 366.1900624186827Q1680.5365141762588 369.3815517659941 1678.6969751774616 371.37623260806373Q1676.8574361786639 373.37091345013334 1672.7129326512525 373.37091345013334ZM1666.3299539566299 475.0109839138141L1666.3299539566299 392.6749913772738L1679.0959113458755 392.6749913772738L1679.0959113458755 475.0109839138141L1666.3299539566299 475.0109839138141ZM1737.3405919343083 476.9170122740139L1737.3405919343083 476.9170122740139Q1729.0294217590183 476.9170122740139 1722.1810175345793 473.90282789044204Q1715.3104501896726 470.86648038640277 1710.456726807303 465.1927215467381Q1705.5808403044664 459.5411258275408 1702.8769396074388 451.62889182066465Q1700.1508757899435 443.73882093425595 1700.1508757899435 433.8319060853102L1700.1508757899435 433.8319060853102Q1700.1508757899435 424.102296200104 1702.8769396074388 416.12357283182547Q1705.5808403044664 408.144849463547 1710.456726807303 402.4932537443498Q1715.3104501896726 396.8194949046851 1722.1810175345793 393.78314740064576Q1729.0294217590183 390.74679989660643 1737.3405919343083 390.74679989660643L1737.3405919343083 390.74679989660643Q1745.629598989131 390.74679989660643 1752.4115138521677 393.78314740064576Q1759.1934287152042 396.8194949046851 1764.1358045794434 402.4932537443498Q1769.1003435641499 408.144849463547 1771.8042442611777 416.12357283182547Q1774.5081449582053 424.102296200104 1774.5081449582053 433.8319060853102L1774.5081449582053 433.8319060853102Q1774.5081449582053 443.73882093425595 1771.8042442611777 451.62889182066465Q1769.1003435641499 459.5411258275408 1764.1358045794434 465.1927215467381Q1759.1934287152042 470.86648038640277 1752.4115138521677 473.90282789044204Q1745.629598989131 476.9170122740139 1737.3405919343083 476.9170122740139ZM1737.3405919343083 465.591657715152L1737.3405919343083 465.591657715152Q1747.7129323130703 465.591657715152 1754.251052850965 459.20867902052925Q1760.7891733888598 452.82570032590644 1760.7891733888598 439.74945925011673L1760.7891733888598 439.74945925011673L1760.7891733888598 427.9365160409711Q1760.7891733888598 414.8602749651814 1754.251052850965 408.4772962705586Q1747.7129323130703 402.09431757593586 1737.3405919343083 402.09431757593586L1737.3405919343083 402.09431757593586Q1726.9682515555462 402.09431757593586 1720.4301310176513 408.4772962705586Q1713.8698473592892 414.8602749651814 1713.8698473592892 427.9365160409711L1713.8698473592892 427.9365160409711L1713.8698473592892 439.74945925011673Q1713.8698473592892 452.82570032590644 1720.4301310176513 459.20867902052925Q1726.9682515555462 465.591657715152 1737.3405919343083 465.591657715152Z " fill="maroon" transform="matrix(0.514325006190484,0,0,0.514325006190484,-37.673942516209,77.8497190960957)"/></g></svg>