<svg xmlns="http://www.w3.org/2000/svg" version="1.1" xmlns:xlink="http://www.w3.org/1999/xlink" xmlns:svgjs="http://svgjs.dev/svgjs" width="100%" height="100%" viewBox="0 0 1000 600"><rect width="1000" height="600" x="0" y="0" fill="white "/><g><rect width="333.3333333333333" height="333.3333333333333" rx="13.333333333333334" ry="13.333333333333334" y="252.5311532643549" fill="white " transform="matrix(0.5427493274599093,0,0,0.5427493274599093,-3.5147820431322447,72.4806776580011)" x="244.47161865234375"/><path d="M284.14475248623637 493.44351331294587L284.14475248623637 493.44351331294587Q270.10919221833615 493.44351331294587 259.4141491735062 487.67842713764713Q248.71910612867623 481.8864013073236 242.73850271317937 470.0598927514537Q236.78483895270728 458.20644454055906 236.78483895270728 440.2376946390437L236.78483895270728 440.2376946390437Q236.78483895270728 421.3799361217113 243.08871822850125 409.3917896356929Q249.36565784927046 397.4036431496744 260.46479571947185 391.6385569743756Q271.5369939346484 385.87347079907687 285.653373167623 385.87347079907687L285.653373167623 385.87347079907687Q293.41199381475406 385.87347079907687 300.65876101641464 387.43597079051295Q307.90552821807523 388.9984707819491 312.5391488823341 391.3422207691032L312.5391488823341 391.3422207691032L307.82470925300095 404.5157120762112Q303.0833299686431 402.62993622447794 296.86026965792337 401.1213155430913Q290.66414900222844 399.58575520668 285.2762179972764 399.58575520668L285.2762179972764 399.58575520668Q274.47341633234737 399.58575520668 267.3344077507858 404.24631552596355Q260.16845951419947 408.8799361902224 256.61242505093105 417.87778096849246Q253.0563905876627 426.87562574676247 253.0563905876627 440.02217739884566L253.0563905876627 440.02217739884566Q253.0563905876627 452.6299359504336 256.5316060858568 461.5469617636293Q259.97988192902613 470.43704792180034 266.8494939603401 475.1245478961087Q273.71910599165403 479.8120478704171 284.0369938661374 479.8120478704171L284.0369938661374 479.8120478704171Q292.2805283037141 479.8120478704171 298.9076834398052 478.0609702938076Q305.5348385758963 476.3098927171982 310.9497092358732 473.93920307501924L310.9497092358732 473.93920307501924L310.9497092358732 487.94782368789475Q305.7234161610696 490.614849535346 299.33871792020136 492.04265125165836Q292.9540196793331 493.44351331294587 284.14475248623637 493.44351331294587ZM335.4647953084053 344.1978244757722L351.1975538428655 344.1978244757722L351.1975538428655 388.21722078623105Q351.1975538428655 392.0157121447223 351.0089762576922 395.84114315823825Q350.8203986725189 399.69351382677905 350.33548488207316 402.89933277472556L350.33548488207316 402.89933277472556L351.3861314280388 402.89933277472556Q354.59195037598533 397.4036431496744 359.5757865555661 393.6859707562574Q364.532683080122 389.9413587078157 370.8904416659655 388.00170354603296Q377.22126059678425 386.0620483842502 384.333329523321 386.0620483842502L384.333329523321 386.0620483842502Q396.8333294548099 386.0620483842502 405.21156216751046 390.02217767289Q413.589794880211 394.00924661655455 417.8193207190984 402.33360001920556Q422.02190690296106 410.68489307688134 422.02190690296106 423.9392033490636L422.02190690296106 423.9392033490636L422.02190690296106 491.55773746121264L406.50466560869904 491.55773746121264L406.50466560869904 424.98984989502924Q406.50466560869904 412.0049361730946 400.5779415032517 405.56635862217684Q394.6512173978043 399.12778107125905 382.4475536715878 399.12778107125905L382.4475536715878 399.12778107125905Q370.8904416659655 399.12778107125905 364.0208296346516 403.51894484029503Q357.1512176033376 407.9370482643558 354.16091589558914 416.4499792521801Q351.1975538428655 424.98984989502924 351.1975538428655 437.3012722413448L351.1975538428655 437.3012722413448L351.1975538428655 491.55773746121264L335.4647953084053 491.55773746121264L335.4647953084053 344.1978244757722ZM545.0553114010427 445.2484704736492L545.0553114010427 459.445668671698L524.311777031977 459.445668671698L524.311777031977 491.55773746121264L508.98311332288824 491.55773746121264L508.98311332288824 459.445668671698L442.01113093133347 459.445668671698L442.01113093133347 446.1913583995158L507.93246677692264 352.3336002932499L524.311777031977 352.3336002932499L524.311777031977 445.2484704736492L545.0553114010427 445.2484704736492ZM457.6361308456946 445.2484704736492L508.98311332288824 445.2484704736492L508.98311332288824 399.9629103770266Q508.98311332288824 394.76355695724783 509.06393228796253 390.5609707733852Q509.1716909080616 386.33144493449777 509.3602684932349 382.6945915061551Q509.54884607840825 379.03079842278765 509.68354435353206 375.7172208547421Q509.81824262865587 372.4036432866966 509.9260012487549 369.19782433875L509.9260012487549 369.19782433875L509.1716909080616 369.19782433875Q507.36673402140264 372.9693760422165 505.0499236892732 377.19890188110395Q502.7331133571438 381.4014880649666 500.36242371496485 384.71506563301216L500.36242371496485 384.71506563301216L457.6361308456946 445.2484704736492ZM562.9701819925085 481.6978237221503L562.9701819925085 481.6978237221503Q562.9701819925085 475.0706685860592 566.176000940455 472.2958841185088Q569.4087595434263 469.4941599959337 574.042380207685 469.4941599959337L574.042380207685 469.4941599959337Q578.8645784571172 469.4941599959337 582.1781560251628 472.2958841185088Q585.4917335932083 475.0706685860592 585.4917335932083 481.6978237221503L585.4917335932083 481.6978237221503Q585.4917335932083 488.24415989316714 582.1781560251628 491.2344616009155Q578.8645784571172 494.1978236536392 574.042380207685 494.1978236536392L574.042380207685 494.1978236536392Q569.4087595434263 494.1978236536392 566.176000940455 491.2344616009155Q562.9701819925085 488.24415989316714 562.9701819925085 481.6978237221503Z " fill="maroon " transform="matrix(0.5427493274599093,0,0,0.5427493274599093,-3.5147820431322447,72.4806776580011)"/><path d="M672.4924452094006 494.19782782459407L672.4924452094006 494.19782782459407Q668.7632785427338 494.19782782459407 665.9716118760671 493.63532782459407Q663.2007785427338 493.09366115792744 661.1382785427338 492.3644944912608L661.1382785427338 492.3644944912608L661.1382785427338 482.46866115792744Q663.4091118760671 483.19782782459407 665.7632785427338 483.6144944912608Q668.0966118760671 484.01032782459407 671.0341118760671 484.01032782459407L671.0341118760671 484.01032782459407Q676.0132785427338 484.01032782459407 679.0966118760671 481.21866115792744Q682.1591118760671 478.44782782459407 682.1591118760671 471.11449449126076L682.1591118760671 471.11449449126076L682.1591118760671 377.8853278245941L694.3257785427338 377.8853278245941L694.3257785427338 470.8228278245941Q694.3257785427338 478.15616115792744 691.9716118760671 483.38532782459407Q689.6382785427338 488.63532782459407 684.8049452094006 491.40616115792744Q679.9716118760671 494.19782782459407 672.4924452094006 494.19782782459407ZM681.0757785427338 355.84366115792744L681.0757785427338 355.84366115792744Q681.0757785427338 351.73949449126076 683.1591118760671 349.80199449126076Q685.2424452094006 347.84366115792744 688.3882785427338 347.84366115792744L688.3882785427338 347.84366115792744Q691.3882785427338 347.84366115792744 693.5549452094006 349.80199449126076Q695.7216118760671 351.73949449126076 695.7216118760671 355.84366115792744L695.7216118760671 355.84366115792744Q695.7216118760671 359.86449449126076 693.5549452094006 361.84366115792744Q691.3882785427338 363.8228278245941 688.3882785427338 363.8228278245941L688.3882785427338 363.8228278245941Q685.2424452094006 363.8228278245941 683.1591118760671 361.84366115792744Q681.0757785427338 359.86449449126076 681.0757785427338 355.84366115792744ZM758.0341118760672 376.4269944912608L758.0341118760672 376.4269944912608Q772.3257785427338 376.4269944912608 779.6591118760672 383.40616115792744Q786.9716118760672 390.40616115792744 786.9716118760672 405.86449449126076L786.9716118760672 405.86449449126076L786.9716118760672 458.15616115792744L774.9716118760672 458.15616115792744L774.9716118760672 406.67699449126076Q774.9716118760672 396.6353278245941 770.3882785427338 391.65616115792744Q765.8049452094004 386.67699449126076 756.3674452094006 386.67699449126076L756.3674452094006 386.67699449126076Q743.0341118760671 386.67699449126076 737.6174452094006 394.21866115792744Q732.1799452094004 401.7603278245941 732.1799452094004 416.11449449126076L732.1799452094004 416.11449449126076L732.1799452094004 458.15616115792744L720.0341118760671 458.15616115792744L720.0341118760671 377.8853278245941L729.8466118760671 377.8853278245941L731.6799452094004 389.4478278245941L732.3257785427338 389.4478278245941Q734.8882785427338 385.19782782459407 738.8466118760671 382.3228278245941Q742.8049452094004 379.42699449126076 747.7216118760671 377.9269944912608Q752.6174452094004 376.4269944912608 758.0341118760672 376.4269944912608ZM842.0549452094004 376.5728278245941L842.0549452094004 376.5728278245941Q856.4091118760672 376.5728278245941 863.3674452094004 383.0103278245941Q870.3257785427338 389.4478278245941 870.3257785427338 403.59366115792744L870.3257785427338 403.59366115792744L870.3257785427338 458.15616115792744L861.4507785427338 458.15616115792744L859.1174452094004 446.28116115792744L858.5341118760672 446.28116115792744Q855.1591118760672 450.67699449126076 851.4924452094004 453.65616115792744Q847.8466118760672 456.61449449126076 843.0341118760672 458.11449449126076Q838.2424452094004 459.61449449126076 831.2841118760672 459.61449449126076L831.2841118760672 459.61449449126076Q823.9507785427338 459.61449449126076 818.2841118760672 457.05199449126076Q812.6174452094004 454.48949449126076 809.3466118760672 449.30199449126076Q806.0966118760672 444.09366115792744 806.0966118760672 436.11449449126076L806.0966118760672 436.11449449126076Q806.0966118760672 424.09366115792744 815.6174452094004 417.65616115792744Q825.1382785427338 411.1978278245941 844.6174452094004 410.61449449126076L844.6174452094004 410.61449449126076L858.4507785427338 410.03116115792744L858.4507785427338 405.1353278245941Q858.4507785427338 394.71866115792744 853.9924452094004 390.55199449126076Q849.5132785427338 386.38532782459407 841.3882785427338 386.38532782459407L841.3882785427338 386.38532782459407Q835.0966118760672 386.38532782459407 829.3882785427338 388.21866115792744Q823.6591118760672 390.03116115792744 818.5341118760672 392.53116115792744L818.5341118760672 392.53116115792744L814.8049452094004 383.30199449126076Q820.2216118760672 380.51032782459407 827.2632785427338 378.55199449126076Q834.2841118760672 376.5728278245941 842.0549452094004 376.5728278245941ZM858.3049452094004 426.0103278245941L858.3049452094004 418.61449449126076L846.0757785427338 419.1144944912608Q831.0757785427338 419.6978278245941 824.9091118760672 424.03116115792744Q818.7632785427338 428.34366115792744 818.7632785427338 436.2603278245941L818.7632785427338 436.2603278245941Q818.7632785427338 443.1353278245941 822.9299452094004 446.42699449126076Q827.1174452094004 449.73949449126076 833.9924452094004 449.73949449126076L833.9924452094004 449.73949449126076Q844.6799452094004 449.73949449126076 851.4924452094004 443.80199449126076Q858.3049452094004 437.86449449126076 858.3049452094004 426.0103278245941L858.3049452094004 426.0103278245941ZM933.0966118760672 376.4269944912608L933.0966118760672 376.4269944912608Q948.0966118760672 376.4269944912608 957.0341118760672 386.73949449126076Q965.9716118760672 397.0728278245941 965.9716118760672 417.80199449126076L965.9716118760672 417.80199449126076Q965.9716118760672 431.48949449126076 961.8674452094004 440.80199449126076Q957.7841118760672 450.09366115792744 950.3466118760672 454.86449449126076Q942.9091118760672 459.61449449126076 932.8049452094004 459.61449449126076L932.8049452094004 459.61449449126076Q926.4299452094004 459.61449449126076 921.5966118760672 457.92699449126076Q916.7632785427338 456.2603278245941 913.3257785427338 453.3853278245941Q909.8674452094004 450.53116115792744 907.5966118760672 447.1769944912608L907.5966118760672 447.1769944912608L906.7216118760672 447.1769944912608Q906.9507785427338 450.03116115792744 907.2841118760672 454.05199449126076Q907.5966118760672 458.0728278245941 907.5966118760672 461.09366115792744L907.5966118760672 461.09366115792744L907.5966118760672 494.0519944912608L895.3674452094004 494.0519944912608L895.3674452094004 377.8853278245941L905.4091118760672 377.8853278245941L907.0132785427338 389.73949449126076L907.5966118760672 389.73949449126076Q909.9507785427338 386.09366115792744 913.3257785427338 383.0519944912608Q916.6799452094004 380.0103278245941 921.5549452094004 378.21866115792744Q926.4299452094004 376.4269944912608 933.0966118760672 376.4269944912608ZM930.9716118760671 386.67699449126076L930.9716118760671 386.67699449126076Q922.6174452094004 386.67699449126076 917.5341118760672 389.88532782459407Q912.4299452094004 393.11449449126076 910.0966118760672 399.53116115792744Q907.7424452094004 405.92699449126076 907.5966118760672 415.59366115792744L907.5966118760672 415.59366115792744L907.5966118760672 417.9478278245941Q907.5966118760672 428.1353278245941 909.8466118760672 435.15616115792744Q912.0757785427338 442.1978278245941 917.2424452094004 445.84366115792744Q922.3882785427337 449.5103278245941 931.1174452094004 449.5103278245941L931.1174452094004 449.5103278245941Q938.5757785427337 449.5103278245941 943.5757785427337 445.48949449126076Q948.5549452094004 441.4478278245941 950.9924452094004 434.23949449126076Q953.4507785427337 427.03116115792744 953.4507785427337 417.65616115792744L953.4507785427337 417.65616115792744Q953.4507785427337 403.4478278245941 947.9299452094004 395.05199449126076Q942.3882785427338 386.67699449126076 930.9716118760671 386.67699449126076ZM1056.3674452094006 417.86449449126076L1056.3674452094006 417.86449449126076Q1056.3674452094006 427.76032782459407 1053.8049452094006 435.53116115792744Q1051.221611876067 443.28116115792744 1046.3882785427336 448.6353278245941Q1041.5549452094006 453.98949449126076 1034.721611876067 456.80199449126076Q1027.8674452094006 459.61449449126076 1019.2216118760672 459.61449449126076L1019.2216118760672 459.61449449126076Q1011.1591118760672 459.61449449126076 1004.4716118760672 456.80199449126076Q997.7632785427337 453.98949449126076 992.8882785427338 448.6353278245941Q988.0132785427337 443.28116115792744 985.3466118760672 435.53116115792744Q982.6799452094004 427.76032782459407 982.6799452094004 417.86449449126076L982.6799452094004 417.86449449126076Q982.6799452094004 404.6978278245941 987.1382785427337 395.42699449126076Q991.6174452094004 386.15616115792744 999.9299452094004 381.28116115792744Q1008.2424452094004 376.4269944912608 1019.7424452094004 376.4269944912608L1019.7424452094004 376.4269944912608Q1030.721611876067 376.4269944912608 1038.971611876067 381.32282782459407Q1047.2007785427336 386.23949449126076 1051.784111876067 395.4894944912608Q1056.3674452094006 404.7603278245941 1056.3674452094006 417.86449449126076ZM995.2841118760671 417.86449449126076L995.2841118760671 417.86449449126076Q995.2841118760671 427.53116115792744 997.8466118760672 434.6353278245941Q1000.4091118760672 441.73949449126076 1005.7424452094004 445.6353278245941Q1011.0966118760672 449.5103278245941 1019.5132785427338 449.5103278245941L1019.5132785427338 449.5103278245941Q1027.8674452094006 449.5103278245941 1033.2424452094006 445.6353278245941Q1038.6382785427336 441.73949449126076 1041.2007785427336 434.6353278245941Q1043.7632785427336 427.53116115792744 1043.7632785427336 417.86449449126076L1043.7632785427336 417.86449449126076Q1043.7632785427336 408.28116115792744 1041.2007785427336 401.28116115792744Q1038.6382785427336 394.28116115792744 1033.284111876067 390.4894944912608Q1027.9507785427336 386.67699449126076 1019.4507785427338 386.67699449126076L1019.4507785427338 386.67699449126076Q1006.9299452094004 386.67699449126076 1001.0966118760672 394.9478278245941Q995.2841118760671 403.21866115792744 995.2841118760671 417.86449449126076ZM1089.6174452094006 344.1978278245941L1089.6174452094006 458.15616115792744L1077.3882785427338 458.15616115792744L1077.3882785427338 344.1978278245941L1089.6174452094006 344.1978278245941ZM1115.2424452094006 377.8853278245941L1127.409111876067 377.8853278245941L1127.409111876067 458.15616115792744L1115.2424452094006 458.15616115792744L1115.2424452094006 377.8853278245941ZM1121.471611876067 347.84366115792744L1121.471611876067 347.84366115792744Q1124.471611876067 347.84366115792744 1126.6382785427336 349.80199449126076Q1128.8049452094006 351.73949449126076 1128.8049452094006 355.84366115792744L1128.8049452094006 355.84366115792744Q1128.8049452094006 359.86449449126076 1126.6382785427336 361.84366115792744Q1124.471611876067 363.8228278245941 1121.471611876067 363.8228278245941L1121.471611876067 363.8228278245941Q1118.3257785427336 363.8228278245941 1116.2424452094006 361.84366115792744Q1114.1382785427336 359.86449449126076 1114.1382785427336 355.84366115792744L1114.1382785427336 355.84366115792744Q1114.1382785427336 351.73949449126076 1116.2424452094006 349.80199449126076Q1118.3257785427336 347.84366115792744 1121.471611876067 347.84366115792744ZM1179.034111876067 449.65616115792744L1179.034111876067 449.65616115792744Q1182.034111876067 449.65616115792744 1185.2007785427338 449.15616115792744Q1188.346611876067 448.6353278245941 1190.3257785427338 447.90616115792744L1190.3257785427338 447.90616115792744L1190.3257785427338 457.34366115792744Q1188.2007785427338 458.30199449126076 1184.4299452094006 458.96866115792744Q1180.659111876067 459.61449449126076 1177.0549452094006 459.61449449126076L1177.0549452094006 459.61449449126076Q1170.6799452094006 459.61449449126076 1165.4924452094006 457.3853278245941Q1160.284111876067 455.15616115792744 1157.1799452094006 449.80199449126076Q1154.0549452094006 444.46866115792744 1154.0549452094006 435.0103278245941L1154.0549452094006 435.0103278245941L1154.0549452094006 387.40616115792744L1142.6382785427336 387.40616115792744L1142.6382785427336 381.46866115792744L1154.1382785427336 376.71866115792744L1158.971611876067 359.28116115792744L1166.3049452094006 359.28116115792744L1166.3049452094006 377.8853278245941L1189.8049452094006 377.8853278245941L1189.8049452094006 387.40616115792744L1166.3049452094006 387.40616115792744L1166.3049452094006 434.6353278245941Q1166.3049452094006 442.1978278245941 1169.784111876067 445.92699449126076Q1173.2632785427338 449.65616115792744 1179.034111876067 449.65616115792744ZM1236.6174452094006 376.5728278245941L1236.6174452094006 376.5728278245941Q1250.971611876067 376.5728278245941 1257.9299452094006 383.0103278245941Q1264.8882785427338 389.4478278245941 1264.8882785427338 403.59366115792744L1264.8882785427338 403.59366115792744L1264.8882785427338 458.15616115792744L1256.0132785427338 458.15616115792744L1253.6799452094006 446.28116115792744L1253.096611876067 446.28116115792744Q1249.721611876067 450.67699449126076 1246.0549452094006 453.65616115792744Q1242.3882785427336 456.61449449126076 1237.596611876067 458.11449449126076Q1232.8049452094006 459.61449449126076 1225.846611876067 459.61449449126076L1225.846611876067 459.61449449126076Q1218.5132785427338 459.61449449126076 1212.846611876067 457.05199449126076Q1207.159111876067 454.48949449126076 1203.909111876067 449.30199449126076Q1200.6382785427336 444.09366115792744 1200.6382785427336 436.11449449126076L1200.6382785427336 436.11449449126076Q1200.6382785427336 424.09366115792744 1210.159111876067 417.65616115792744Q1219.6799452094006 411.1978278245941 1239.1799452094006 410.61449449126076L1239.1799452094006 410.61449449126076L1253.0132785427338 410.03116115792744L1253.0132785427338 405.1353278245941Q1253.0132785427338 394.71866115792744 1248.5549452094006 390.55199449126076Q1244.0757785427338 386.38532782459407 1235.9507785427338 386.38532782459407L1235.9507785427338 386.38532782459407Q1229.659111876067 386.38532782459407 1223.9299452094006 388.21866115792744Q1218.221611876067 390.03116115792744 1213.096611876067 392.53116115792744L1213.096611876067 392.53116115792744L1209.3674452094006 383.30199449126076Q1214.784111876067 380.51032782459407 1221.8049452094006 378.55199449126076Q1228.846611876067 376.5728278245941 1236.6174452094006 376.5728278245941ZM1252.8674452094006 426.0103278245941L1252.8674452094006 418.61449449126076L1240.6382785427338 419.1144944912608Q1225.6174452094006 419.6978278245941 1219.471611876067 424.03116115792744Q1213.3257785427338 428.34366115792744 1213.3257785427338 436.2603278245941L1213.3257785427338 436.2603278245941Q1213.3257785427338 443.1353278245941 1217.4924452094006 446.42699449126076Q1221.659111876067 449.73949449126076 1228.5549452094006 449.73949449126076L1228.5549452094006 449.73949449126076Q1239.2424452094006 449.73949449126076 1246.0549452094006 443.80199449126076Q1252.8674452094006 437.86449449126076 1252.8674452094006 426.0103278245941L1252.8674452094006 426.0103278245941ZM1327.9507785427336 376.4269944912608L1327.9507785427336 376.4269944912608Q1342.221611876067 376.4269944912608 1349.5549452094006 383.40616115792744Q1356.8674452094006 390.40616115792744 1356.8674452094006 405.86449449126076L1356.8674452094006 405.86449449126076L1356.8674452094006 458.15616115792744L1344.8674452094006 458.15616115792744L1344.8674452094006 406.67699449126076Q1344.8674452094006 396.6353278245941 1340.284111876067 391.65616115792744Q1335.7007785427336 386.67699449126076 1326.2632785427336 386.67699449126076L1326.2632785427336 386.67699449126076Q1312.9299452094006 386.67699449126076 1307.5132785427336 394.21866115792744Q1302.0757785427336 401.7603278245941 1302.0757785427336 416.11449449126076L1302.0757785427336 416.11449449126076L1302.0757785427336 458.15616115792744L1289.9299452094006 458.15616115792744L1289.9299452094006 377.8853278245941L1299.7424452094006 377.8853278245941L1301.5757785427336 389.4478278245941L1302.2424452094006 389.4478278245941Q1304.8049452094006 385.19782782459407 1308.7424452094006 382.3228278245941Q1312.7007785427336 379.42699449126076 1317.6174452094006 377.9269944912608Q1322.5132785427336 376.4269944912608 1327.9507785427336 376.4269944912608ZM1451.1382785427336 417.86449449126076L1451.1382785427336 417.86449449126076Q1451.1382785427336 427.76032782459407 1448.5757785427336 435.53116115792744Q1446.0132785427336 443.28116115792744 1441.1799452094006 448.6353278245941Q1436.346611876067 453.98949449126076 1429.4924452094006 456.80199449126076Q1422.6382785427336 459.61449449126076 1413.9924452094006 459.61449449126076L1413.9924452094006 459.61449449126076Q1405.9507785427336 459.61449449126076 1399.2424452094006 456.80199449126076Q1392.534111876067 453.98949449126076 1387.659111876067 448.6353278245941Q1382.8049452094006 443.28116115792744 1380.1174452094006 435.53116115792744Q1377.4507785427336 427.76032782459407 1377.4507785427336 417.86449449126076L1377.4507785427336 417.86449449126076Q1377.4507785427336 404.6978278245941 1381.9299452094006 395.42699449126076Q1386.3882785427336 386.15616115792744 1394.7007785427336 381.28116115792744Q1403.0132785427336 376.4269944912608 1414.5132785427336 376.4269944912608L1414.5132785427336 376.4269944912608Q1425.4924452094006 376.4269944912608 1433.7424452094006 381.32282782459407Q1441.971611876067 386.23949449126076 1446.5549452094006 395.4894944912608Q1451.1382785427336 404.7603278245941 1451.1382785427336 417.86449449126076ZM1390.0549452094006 417.86449449126076L1390.0549452094006 417.86449449126076Q1390.0549452094006 427.53116115792744 1392.6174452094006 434.6353278245941Q1395.1799452094006 441.73949449126076 1400.5132785427336 445.6353278245941Q1405.8674452094006 449.5103278245941 1414.284111876067 449.5103278245941L1414.284111876067 449.5103278245941Q1422.6382785427336 449.5103278245941 1428.034111876067 445.6353278245941Q1433.409111876067 441.73949449126076 1435.971611876067 434.6353278245941Q1438.534111876067 427.53116115792744 1438.534111876067 417.86449449126076L1438.534111876067 417.86449449126076Q1438.534111876067 408.28116115792744 1435.971611876067 401.28116115792744Q1433.409111876067 394.28116115792744 1428.0549452094006 390.4894944912608Q1422.721611876067 386.67699449126076 1414.221611876067 386.67699449126076L1414.221611876067 386.67699449126076Q1401.7007785427336 386.67699449126076 1395.8674452094006 394.9478278245941Q1390.0549452094006 403.21866115792744 1390.0549452094006 417.86449449126076ZM1470.3257785427336 450.53116115792744L1470.3257785427336 450.53116115792744Q1470.3257785427336 445.40616115792744 1472.8049452094006 443.2603278245941Q1475.3049452094006 441.09366115792744 1478.8882785427336 441.09366115792744L1478.8882785427336 441.09366115792744Q1482.6382785427336 441.09366115792744 1485.2007785427336 443.2603278245941Q1487.7632785427336 445.40616115792744 1487.7632785427336 450.53116115792744L1487.7632785427336 450.53116115792744Q1487.7632785427336 455.59366115792744 1485.2007785427336 457.90616115792744Q1482.6382785427336 460.1978278245941 1478.8882785427336 460.1978278245941L1478.8882785427336 460.1978278245941Q1475.3049452094006 460.1978278245941 1472.8049452094006 457.90616115792744Q1470.3257785427336 455.59366115792744 1470.3257785427336 450.53116115792744ZM1511.5549452094006 377.8853278245941L1523.721611876067 377.8853278245941L1523.721611876067 458.15616115792744L1511.5549452094006 458.15616115792744L1511.5549452094006 377.8853278245941ZM1517.784111876067 347.84366115792744L1517.784111876067 347.84366115792744Q1520.784111876067 347.84366115792744 1522.9507785427336 349.80199449126076Q1525.1174452094006 351.73949449126076 1525.1174452094006 355.84366115792744L1525.1174452094006 355.84366115792744Q1525.1174452094006 359.86449449126076 1522.9507785427336 361.84366115792744Q1520.784111876067 363.8228278245941 1517.784111876067 363.8228278245941L1517.784111876067 363.8228278245941Q1514.6382785427336 363.8228278245941 1512.5549452094006 361.84366115792744Q1510.4507785427336 359.86449449126076 1510.4507785427336 355.84366115792744L1510.4507785427336 355.84366115792744Q1510.4507785427336 351.73949449126076 1512.5549452094006 349.80199449126076Q1514.6382785427336 347.84366115792744 1517.784111876067 347.84366115792744ZM1618.6382785427336 417.86449449126076L1618.6382785427336 417.86449449126076Q1618.6382785427336 427.76032782459407 1616.0757785427336 435.53116115792744Q1613.5132785427336 443.28116115792744 1608.6799452094006 448.6353278245941Q1603.846611876067 453.98949449126076 1596.9924452094006 456.80199449126076Q1590.1382785427336 459.61449449126076 1581.5132785427336 459.61449449126076L1581.5132785427336 459.61449449126076Q1573.4507785427336 459.61449449126076 1566.7424452094006 456.80199449126076Q1560.0549452094006 453.98949449126076 1555.1799452094006 448.6353278245941Q1550.3049452094006 443.28116115792744 1547.6382785427336 435.53116115792744Q1544.9507785427336 427.76032782459407 1544.9507785427336 417.86449449126076L1544.9507785427336 417.86449449126076Q1544.9507785427336 404.6978278245941 1549.4299452094006 395.42699449126076Q1553.8882785427336 386.15616115792744 1562.2007785427336 381.28116115792744Q1570.5132785427336 376.4269944912608 1582.0132785427336 376.4269944912608L1582.0132785427336 376.4269944912608Q1593.0132785427336 376.4269944912608 1601.2424452094006 381.32282782459407Q1609.4924452094006 386.23949449126076 1614.0549452094006 395.4894944912608Q1618.6382785427336 404.7603278245941 1618.6382785427336 417.86449449126076ZM1557.5549452094006 417.86449449126076L1557.5549452094006 417.86449449126076Q1557.5549452094006 427.53116115792744 1560.1174452094006 434.6353278245941Q1562.6799452094006 441.73949449126076 1568.034111876067 445.6353278245941Q1573.3674452094006 449.5103278245941 1581.8049452094006 449.5103278245941L1581.8049452094006 449.5103278245941Q1590.1382785427336 449.5103278245941 1595.534111876067 445.6353278245941Q1600.909111876067 441.73949449126076 1603.471611876067 434.6353278245941Q1606.034111876067 427.53116115792744 1606.034111876067 417.86449449126076L1606.034111876067 417.86449449126076Q1606.034111876067 408.28116115792744 1603.471611876067 401.28116115792744Q1600.909111876067 394.28116115792744 1595.5757785427336 390.4894944912608Q1590.221611876067 386.67699449126076 1581.721611876067 386.67699449126076L1581.721611876067 386.67699449126076Q1569.2007785427336 386.67699449126076 1563.3674452094006 394.9478278245941Q1557.5549452094006 403.21866115792744 1557.5549452094006 417.86449449126076Z " fill="black" transform="matrix(0.5427493274599093,0,0,0.5427493274599093,-3.5147820431322447,72.4806776580011)"/></g></svg>