<svg xmlns="http://www.w3.org/2000/svg" version="1.1" xmlns:xlink="http://www.w3.org/1999/xlink" xmlns:svgjs="http://svgjs.dev/svgjs" width="100%" height="100%" viewBox="0 0 1000 600"><rect width="1000" height="600" x="0" y="0" fill="white"/><g><circle r="166.66666666666666" cx="405.6614634195963" cy="391.4714840403319" fill="white" transform="matrix(0.6170321733450577,0,0,0.6170321733450576,-8.604360110528729,58.44947762125517)"/><path d="M219.36938780342655 466.4714985547891L219.36938780342655 466.4714985547891L216.52723653881077 463.4763083759248L216.83331436730785 462.23013435990094Q221.4026190927286 457.6608296344802 223.91682982681178 452.63240816631384Q226.45290326293048 447.58212399611193 227.45858755656374 440.4330204305015Q228.48613455223253 433.26205416285546 228.48613455223253 422.54933016545755L228.48613455223253 422.54933016545755L228.48613455223253 373.7517792222082Q228.48613455223253 368.8763966682904 227.15250972806666 367.0617923993434Q225.8188849039008 365.2690508324319 222.1896763660068 365.2690508324319L222.1896763660068 365.2690508324319Q220.94350234998296 365.2690508324319 219.43497590953305 365.48767785278693Q217.94831217111863 365.7281675751775 217.94831217111863 365.7281675751775L217.94831217111863 365.7281675751775L218.5823305301483 359.91268883373294Q222.1896763660068 359.4317093889518 226.12496273239788 358.7321029238156Q230.06024909878894 358.0106337566439 233.5364187224344 357.2235764833657Q236.99072564404435 356.4365192100875 239.11140774148845 355.97740246734185Q241.23208983893252 355.49642302256075 241.23208983893252 355.49642302256075L241.23208983893252 355.49642302256075L242.01914711221073 357.39847809964976Q240.7729730961869 359.58474830320034 240.05150392901518 378.4741228618775Q239.351897463879 397.36349742055467 239.351897463879 430.74784342877234L239.351897463879 430.74784342877234Q239.351897463879 442.0727230831644 234.2360251875706 451.27692064011245Q229.1201529112622 460.502980899096 219.36938780342655 466.4714985547891ZM233.20847819190183 333.7867599013033L233.20847819190183 333.7867599013033Q229.75417127029186 333.7867599013033 227.6334891728478 331.49117618757515Q225.4909443733682 329.2174551758825 225.4909443733682 325.74128555223706L225.4909443733682 325.74128555223706Q225.4909443733682 321.80599918584596 228.18005672373545 319.1387495375143Q230.84730637206718 316.47149988918255 234.78259273845825 316.47149988918255L234.78259273845825 316.47149988918255Q238.08386074581966 316.47149988918255 240.29199365140576 318.65777009273313Q242.50012655699186 320.86590299831926 242.50012655699186 324.49511153621324L242.50012655699186 324.49511153621324Q242.50012655699186 328.43039790260434 239.83287690866013 331.097647550936Q237.1437645582929 333.7867599013033 233.20847819190183 333.7867599013033ZM304.3715733174738 430.41990289823974L304.98372897446797 423.97040579776547Q309.70607261413727 422.72423178174165 311.7611666054748 420.27560915376495Q313.81626059681236 417.8269865257883 313.81626059681236 413.73866124514865L313.81626059681236 413.73866124514865L314.4284162538065 382.58431084455265Q314.4284162538065 374.7137381117705 311.0615601403386 370.4505112148468Q307.6728413248352 366.20914701995866 301.37638313860947 366.20914701995866L301.37638313860947 366.20914701995866Q297.5941356864669 366.20914701995866 293.6588493200759 367.7832615665151Q289.7235629536848 369.3573761130715 286.6627846687139 371.237568488125Q283.5801436817076 373.13962356521404 282.00602913515115 374.3857975812379L282.00602913515115 374.3857975812379Q281.85299022090265 378.4741228618775 281.6125004985121 384.07097458296704Q281.3720107761215 389.6678263040566 281.1533837557664 395.48330504550114Q280.9128940333759 401.29878378694576 280.75985511912734 406.02112742661507Q280.5849535028433 410.74347106628437 280.5849535028433 413.104642886119L280.5849535028433 413.104642886119Q280.5849535028433 418.00188814207235 281.9404410290447 419.96953132526784Q283.2740658532105 421.9371745084634 286.26925603207485 421.9371745084634L286.26925603207485 421.9371745084634Q287.6684689623472 421.9371745084634 289.7235629536848 421.7622728921794Q291.77865694502236 421.60923397793084 291.77865694502236 421.60923397793084L291.77865694502236 421.60923397793084L292.0847347735194 422.2432523369605L290.66365914121155 429.02068996796737Q290.66365914121155 429.02068996796737 288.3024873213769 428.8457883516833Q285.94131550154225 428.69274943743477 282.64004749418086 428.62716133132824Q279.3387794868195 428.5397105231862 276.34358930795514 428.5397105231862L276.34358930795514 428.5397105231862Q273.0423213005937 428.5397105231862 269.4131127626997 428.7802002455768Q265.8057669268412 429.02068996796737 263.26969349072255 429.2393169883224Q260.75548275663937 429.479806710713 260.75548275663937 429.479806710713L260.75548275663937 429.479806710713L261.5425400299176 423.0303096102387Q266.1118447553383 422.2432523369605 267.99203713039185 420.1881583456229Q269.89409220748087 418.1549270563209 269.89409220748087 413.73866124514865L269.89409220748087 413.73866124514865L269.89409220748087 375.3258937687647Q269.89409220748087 369.9913944721012 268.1669387466759 367.8488496726216Q266.41792258383543 365.7281675751775 262.1765583889472 365.7281675751775L262.1765583889472 365.7281675751775L260.44940492814226 365.7281675751775L259.96842548336116 365.09414921614785L260.44940492814226 359.91268883373294Q265.95880584108977 358.9725926462062 270.9872273092561 357.9450456505374Q276.03751147945803 356.9174986548686 279.2513286786774 356.1304413815904Q282.4870085799323 355.3433841083122 282.4870085799323 355.3433841083122L282.4870085799323 355.3433841083122L283.42710476745907 356.61142082637156Q283.42710476745907 356.61142082637156 282.72749830232283 359.7596499194844Q282.00602913515115 362.9078790125972 281.6999513066541 366.9962042932369L281.6999513066541 366.9962042932369L282.00602913515115 367.4553210359825Q283.42710476745907 366.5152248484557 286.4878830524299 364.5475816652602Q289.57052403943624 362.5799384820647 293.1122817691882 360.5467071927626Q296.65403949894016 358.491613201425 299.95530750630155 357.00494946301063Q303.256575513663 355.49642302256075 305.158630590752 355.49642302256075L305.158630590752 355.49642302256075Q315.0624346128362 355.49642302256075 320.89977605631634 361.0058239355082Q326.7152547977609 366.5152248484557 326.7152547977609 375.80687321354577L326.7152547977609 375.80687321354577Q326.7152547977609 377.86196720488334 326.40917696926385 382.58431084455265Q326.08123643873125 387.30665448422195 325.6221196959856 393.1221332256665Q325.1411402512045 398.9376119671111 324.8350624227074 404.29397396581004Q324.5071218921748 409.65033596450905 324.5071218921748 413.104642886119L324.5071218921748 413.104642886119Q324.5071218921748 417.67394761153975 325.77515861023414 419.7946297089838Q327.02133262625796 421.9371745084634 330.0165228051223 421.9371745084634L330.0165228051223 421.9371745084634Q331.4375984374302 421.9371745084634 333.4926924287678 421.7622728921794Q335.5259237180698 421.60923397793084 335.5259237180698 421.60923397793084L335.5259237180698 421.60923397793084L335.8538642486024 422.2432523369605L334.58582753054304 429.02068996796737Q334.58582753054304 429.02068996796737 333.2522027063772 428.9332391598253Q331.9185778822113 428.8457883516833 329.7760330827318 428.7802002455768Q327.65535098528767 428.69274943743477 325.2285910593465 428.62716133132824Q322.77996843136987 428.5397105231862 320.57183552578374 428.5397105231862L320.57183552578374 428.5397105231862Q318.05762479170056 428.5397105231862 315.30292433522675 428.8457883516833Q312.54822387875305 429.1737288822159 310.03401314466987 429.479806710713Q307.51980241058664 429.8077472412456 305.9456878640302 430.11382506974263Q304.3715733174738 430.41990289823974 304.3715733174738 430.41990289823974L304.3715733174738 430.41990289823974ZM398.3374666660785 430.41990289823974L398.3374666660785 430.41990289823974Q392.04100847985274 430.41990289823974 388.4992507501008 427.2060856990203Q384.9574930203488 423.97040579776547 384.32347466131915 417.67394761153975L384.32347466131915 417.67394761153975L383.6894563022895 417.5209086972912Q379.92907155218245 421.30315614943373 376.54035273667904 424.0578566059075Q373.15163392117563 426.81255706238125 370.54997237895043 428.29922080079564Q367.9483108367252 429.8077472412456 366.37419629016875 429.8077472412456L366.37419629016875 429.8077472412456Q360.5587175487242 429.8077472412456 355.98941282330344 427.27167380512685Q351.4201080978827 424.7574630710437 348.840309257693 420.36305996190697Q346.2386477154678 415.9467941507348 346.2386477154678 410.2843543235387L346.2386477154678 410.2843543235387Q346.2386477154678 405.71504959811796 348.5123687271604 402.260742676508Q350.80795244088847 398.7845730528626 354.5683371909955 397.69143795108727L354.5683371909955 397.69143795108727L384.47651357556776 389.49292468777253L384.6514151918518 382.58431084455265Q384.6514151918518 374.7137381117705 381.0222066539577 370.29747230059826Q377.3929981160638 365.88120648942606 370.79046210134095 365.88120648942606L370.79046210134095 365.88120648942606Q366.37419629016875 365.88120648942606 361.4988137362509 367.93630048076363Q356.6234311823331 369.9913944721012 351.9010875426638 373.7517792222082L351.9010875426638 373.7517792222082L351.1140302693856 373.2926624794626L349.23383789433205 366.5152248484557Q353.3221631749717 364.1540530286211 358.35058464313806 361.5523914863959Q363.40086881333997 358.9725926462062 367.9483108367252 357.2235764833657Q372.5176155621459 355.49642302256075 374.8787873819806 355.49642302256075L374.8787873819806 355.49642302256075Q381.809263927236 355.49642302256075 386.6846464811538 357.9450456505374Q391.5600290350717 360.37180557647855 394.1616905772969 364.87552219579277Q396.7633521195221 369.3573761130715 396.7633521195221 375.80687321354577L396.7633521195221 375.80687321354577Q396.7633521195221 377.86196720488334 396.36982348288296 382.4094092282686Q395.97629484624383 386.97871395368935 395.3422764872142 392.5755656747789Q394.7082581281845 398.15055469383293 394.3147294915454 403.35387777828333Q393.92120085490626 408.55720086273374 393.92120085490626 412.0115077843437L393.92120085490626 412.0115077843437Q393.92120085490626 415.4658147059536 395.6702170177467 417.36786978304264Q397.39737047855175 419.24806215809616 400.3925606574161 419.24806215809616L400.3925606574161 419.24806215809616Q403.0598103057478 419.24806215809616 405.72705995407955 417.9144373339303Q408.4161723044467 416.5808125097644 409.8372479367547 415.31277579170506L409.8372479367547 415.31277579170506L412.02351814030527 417.8269865257883Q410.7773441242814 419.88208051712587 408.65666202683735 422.4837420593511Q406.51411722735776 425.0854036015763 403.934318387168 427.27167380512685Q401.3326568449428 429.479806710713 398.3374666660785 430.41990289823974ZM369.063308640536 419.0950232438476L369.063308640536 419.0950232438476Q372.0584988194003 419.0950232438476 376.0593732918979 416.97434114640356Q380.082110466431 414.85365904895946 383.3833784737924 411.5305283395626L383.3833784737924 411.5305283395626L384.17043574707066 395.48330504550114L362.7668504543103 401.9328021459754Q358.1975457288895 403.35387777828333 358.1975457288895 408.55720086273374L358.1975457288895 408.55720086273374Q358.1975457288895 412.95160397187044 361.2583240138604 416.0342449588768Q364.34096500086673 419.0950232438476 369.063308640536 419.0950232438476ZM420.22203140362 465.83748019575944L420.22203140362 465.83748019575944L421.0090886768982 459.71592362581777Q426.0375101450645 459.08190526678806 427.54603658551446 456.961223169344Q429.0327003239289 454.8186783698644 429.0327003239289 448.36918126939014L429.0327003239289 448.36918126939014Q429.0327003239289 445.85497053530696 429.1201511320709 440.9795879813891Q429.18573923817746 436.1042054274713 429.2731900463194 430.8134315348788Q429.338778152426 425.5445203443219 429.338778152426 422.2432523369605L429.338778152426 422.2432523369605L429.338778152426 375.3258937687647Q429.338778152426 369.9913944721012 427.61162469162105 367.8488496726216Q425.8844712308161 365.7281675751775 421.64310703592787 365.7281675751775L421.64310703592787 365.7281675751775L419.8940908730874 365.7281675751775L419.43497413034174 365.09414921614785L419.8940908730874 359.91268883373294Q425.4034917860349 358.9725926462062 430.45377595623677 357.9450456505374Q435.4821974244032 356.9174986548686 438.71787732565804 356.1304413815904Q441.93169452487746 355.3433841083122 441.93169452487746 355.3433841083122L441.93169452487746 355.3433841083122L442.8936534144397 356.61142082637156Q442.8936534144397 356.61142082637156 442.25963505541006 359.27867047470323Q441.62561669638035 361.94592012303497 441.31953886788324 365.09414921614785L441.31953886788324 365.09414921614785L441.93169452487746 366.20914701995866Q448.86217107013283 361.3337644660408 453.67196551794416 358.6446521156736Q458.45989726371994 355.97740246734185 460.20891342656046 355.97740246734185L460.20891342656046 355.97740246734185Q469.32566017536635 355.97740246734185 476.1030978063733 360.15317855612346Q482.8586727353446 364.30709194286965 486.72837099562923 371.7841360390127Q490.57620655387825 379.2611801351557 490.57620655387825 389.1868468592755L490.57620655387825 389.1868468592755Q490.57620655387825 397.69143795108727 487.5154282689074 405.1684820472303Q484.432787281901 412.6455261433734 479.0108371770956 418.3079659705694Q473.58888707229005 423.97040579776547 466.5053716127861 427.2060856990203Q459.42185615328225 430.41990289823974 451.376381804216 430.41990289823974L451.376381804216 430.41990289823974Q449.49618942916254 430.41990289823974 446.82893978083075 430.2668639839912Q444.1398274304636 430.11382506974263 442.0191453330194 429.9607861554941Q439.8984632355754 429.8077472412456 439.8984632355754 429.8077472412456L439.8984632355754 429.8077472412456Q439.8984632355754 433.7430336076366 439.9640513416819 437.83135888827627Q440.05150214982393 441.91968416891586 440.05150214982393 446.00800944955546L440.05150214982393 446.00800944955546Q440.05150214982393 453.24456382330794 441.5381658882383 455.8462253655332Q443.0466923286882 458.44788690775846 447.44109543782497 458.44788690775846L447.44109543782497 458.44788690775846Q448.7091321558843 458.44788690775846 450.1302077881922 458.3604360996164Q451.55128342050006 458.2948479935099 452.7974574365239 458.2948479935099L452.7974574365239 458.2948479935099L453.12539796705653 458.75396473625545L451.8573612489971 464.7443450939841Q449.97716887394364 464.7443450939841 448.0751137968546 464.7443450939841Q446.19492142180104 464.7443450939841 444.3803171528541 464.7443450939841Q442.56571288390705 464.7443450939841 440.6855205088536 464.7443450939841Q438.78346543176457 464.7443450939841 436.9032730567111 464.7443450939841L436.9032730567111 464.7443450939841Q432.48700724553885 464.7443450939841 428.6391716872898 464.9848348163747Q424.7913361290407 465.2253245387653 422.4957524153126 465.53140236726233Q420.22203140362 465.83748019575944 420.22203140362 465.83748019575944ZM455.7926476153882 421.7622728921794L455.7926476153882 421.7622728921794Q466.33046999650213 421.7622728921794 472.4083011623728 414.6131693265689Q478.46426962620797 407.4422030589229 478.46426962620797 395.00232560072004L478.46426962620797 395.00232560072004Q478.46426962620797 386.97871395368935 475.7095691697342 380.6166676613571Q472.95486871326045 374.23275866698935 468.2325250735911 370.4505112148468Q463.51018143392184 366.66826376270427 457.67283999044173 366.66826376270427L457.67283999044173 366.66826376270427Q454.5246108973289 366.66826376270427 449.97716887394364 368.81080856218387Q445.4078641485229 370.93149065962797 441.31953886788324 374.3857975812379L441.31953886788324 374.3857975812379Q440.99159833735064 380.8352946817121 440.6855205088536 388.55282850024577Q440.357579978321 396.2703623187794 440.2045410640725 404.14093505156154Q440.05150214982393 412.0115077843437 440.05150214982393 418.78894541535055L440.05150214982393 418.78894541535055Q443.1997312429368 420.03511943137437 447.52854624596694 420.90962751279466Q451.8573612489971 421.7622728921794 455.7926476153882 421.7622728921794ZM579.5136784343167 443.1877208869752L568.3418376941731 445.06791326202875L567.4017415066462 443.64683762972084Q567.4017415066462 443.64683762972084 567.5547804208948 440.9795879813891Q567.7078193351433 438.2904756310219 567.8608582493919 433.9616606279917Q568.035759865676 429.63284562496153 568.1887987799246 424.6918749649372Q568.3418376941731 419.7290416028773 568.3418376941731 415.15973687745657L568.3418376941731 415.15973687745657Q559.2032282433315 414.85365904895946 548.9714836907146 414.6787574326754Q538.739739138098 414.5257185184269 529.4699534750434 414.5257185184269L529.4699534750434 414.5257185184269Q529.622992389292 413.104642886119 529.7760313035405 411.6179791477046Q529.9290702177891 410.13131540929015 530.0821091320377 408.7102397769823L530.0821091320377 408.7102397769823L573.5451607786235 349.199964836335Q573.6981996928719 349.199964836335 573.8512386071206 349.1343767302285Q574.004277521369 349.0469259220865 574.1573164356175 349.0469259220865L574.1573164356175 349.0469259220865L579.2076006058194 350.6210404686429L579.2076006058194 406.02112742661507L593.8337482675729 406.02112742661507L594.7957071571352 407.28916414467443L593.527670439076 415.9467941507348Q593.527670439076 415.9467941507348 589.5923840726848 415.7937552364862Q585.6570977062938 415.64071632223767 579.2076006058194 415.4658147059536L579.2076006058194 415.4658147059536Q579.3606395200679 421.7622728921794 579.6011292424587 427.90569216415656Q579.8416189648492 434.0491114361337 580.0602459852043 438.07184861066685Q580.3007357075949 442.0727230831644 580.3007357075949 442.0727230831644L580.3007357075949 442.0727230831644L579.5136784343167 443.1877208869752ZM566.9207620618652 370.7784517453794L541.5818904027137 406.02112742661507L568.3418376941731 406.02112742661507L568.3418376941731 370.7784517453794L566.9207620618652 370.7784517453794Z " fill="orange " transform="matrix(0.6170321733450577,0,0,0.6170321733450576,-8.604360110528729,58.44947762125517)"/><path d="M706.6509024911304 462.88607302339886L695.0129716654023 466.4714961565777Q695.0129716654023 466.4714961565777 693.6610908119087 461.828079311969Q692.2798212442087 457.1846624673604 689.9581128219044 449.5435967737006Q687.6070156853937 441.9319197942472 684.7563104073745 432.85080710447465Q681.9056051293552 423.74030570049564 679.1430659939551 414.5416381538975Q676.4099155727615 405.3429706072994 673.9706522936316 397.61373877102045Q671.5313890145017 389.8845069347415 670.0619533041826 385.4468110895776L670.0619533041826 385.4468110895776Q666.4471414567973 375.0725949747241 656.1023140561502 374.8668739752794L656.1023140561502 374.8668739752794L655.6614833430544 374.0146012632943L656.925198053929 367.020087282175Q656.925198053929 367.020087282175 660.216734045044 367.020087282175Q663.5082700361589 367.020087282175 667.5051351682272 367.1376421390005Q671.5313890145017 367.255196995826 673.8530974368061 367.255196995826L673.8530974368061 367.255196995826Q680.201059705385 367.255196995826 685.9318589756298 366.81436628273025Q691.6332695316682 366.4029242838409 695.1305265222279 366.0796484275707Q698.6277835127876 365.75637257130046 698.6277835127876 365.75637257130046L698.6277835127876 365.75637257130046L699.0392255116769 366.81436628273025L697.7755108008025 373.3680495507538Q690.7809968196832 373.6031592644049 688.2535673979341 374.7493191184539Q685.7261379761851 375.92486768670926 685.7261379761851 378.893127821554L685.7261379761851 378.893127821554Q685.7261379761851 380.5682845313179 686.9898526870596 385.9758079452925Q688.2535673979341 391.3539426450607 690.2519999639683 398.877453481895Q692.2798212442087 406.4009643187292 694.4839748096874 414.3359171544529Q696.7175170893727 422.2708699901765 698.7159496554068 429.2359952570894Q700.7437709356473 436.23050923820875 702.0074856465217 440.5506502265472Q703.2712003573963 444.90017992909196 703.2712003573963 444.90017992909196L703.2712003573963 444.90017992909196L704.1234730693814 444.90017992909196Q707.2974542036708 436.6419512370981 710.1481594816901 429.5592711133596Q712.9988647597092 422.4765909896212 715.4381280388391 416.33434972048695Q717.8773913179689 410.19210845135274 719.9933787408286 405.22541575047387Q722.1093661636883 400.258723049595 723.696356730833 396.1149143464949Q725.2833472979777 392.00049435760116 726.3413410094075 388.82651322331174L726.3413410094075 388.82651322331174Q724.2253535865478 382.0671089558435 721.0513724522584 378.45229710845825Q717.8773913179689 374.8668739752794 711.3237080499454 374.8668739752794L711.3237080499454 374.8668739752794L710.8828773368496 374.0146012632943L712.1759807619305 367.020087282175Q712.1759807619305 367.020087282175 715.4381280388391 367.020087282175Q718.7296640299542 367.020087282175 722.7559178762288 367.1376421390005Q726.7527830082969 367.255196995826 729.1038801448076 367.255196995826L729.1038801448076 367.255196995826Q735.4518424133864 367.255196995826 741.0356981125994 366.9319211395558Q746.6489425260187 366.60864528328557 750.2637543734039 366.4029242838409Q753.8491775065827 366.1972032843962 753.8491775065827 366.1972032843962L753.8491775065827 366.1972032843962L754.260619505472 367.255196995826L752.9969047945976 373.80888026384963Q745.7966698140335 374.0146012632943 743.38679524911 375.0725949747241Q740.9475319699802 376.13058868615394 740.9475319699802 378.893127821554L740.9475319699802 378.893127821554Q740.9475319699802 380.3625635318732 742.2112466808547 385.7700869458478Q743.4749613917293 391.14822164561605 745.5027826719697 398.6717324824503Q747.5012152380039 406.16585460507815 749.734757517689 414.2183622976273Q751.9389110831678 422.2708699901765 753.9667323634083 429.2359952570894Q755.9651649294424 436.23050923820875 757.2288796403169 440.5506502265472Q758.4925943511914 444.90017992909196 758.4925943511914 444.90017992909196L758.4925943511914 444.90017992909196L759.3448670631765 444.90017992909196Q766.95654404263 425.4448511244659 772.4816223134301 411.896653875323Q777.9773118700239 398.34845662618005 780.9455720048686 390.41350379045645Q783.884443425507 382.47855095473284 783.884443425507 379.9511215329838L783.884443425507 379.9511215329838Q783.884443425507 376.98286139813905 782.0035657162985 375.8073128298837Q780.0932992928834 374.66115297583474 775.2147727346237 374.66115297583474L775.2147727346237 374.66115297583474L767.3973747557257 374.66115297583474L766.5451020437405 373.3680495507538L767.6030957551703 366.81436628273025Q767.6030957551703 366.81436628273025 770.7770768894597 366.9319211395558Q773.9510580237493 367.020087282175 778.7120297251834 367.1376421390005Q783.4730014266177 367.255196995826 788.557248984322 367.255196995826L788.557248984322 367.255196995826Q792.1426721175008 367.255196995826 796.1689259637753 367.1376421390005Q800.1951798100499 367.020087282175 803.0458850880692 367.020087282175Q805.8965903660884 367.020087282175 805.8965903660884 367.020087282175L805.8965903660884 367.020087282175L804.4271546557693 374.8668739752794Q800.1951798100499 375.2783159741688 797.6383616740945 378.3641309658391Q795.1109322523455 381.420557243303 791.2903994055157 390.7367796467267L791.2903994055157 390.7367796467267L761.6665754854808 462.88607302339886L750.2637543734039 466.4714961565777Q750.2637543734039 466.4714961565777 748.4416540926081 460.44680974426905Q746.6489425260187 454.42212333196034 743.680682391174 444.7826250722665Q740.7418109705355 435.17251552677897 737.4502749794206 424.3868574130361Q734.1587389883056 413.5718105850869 731.2198675676673 404.0498671822185L731.2198675676673 404.0498671822185L729.9267641425863 404.0498671822185L706.6509024911304 462.88607302339886ZM881.0141438776054 465.4135024451479L881.0141438776054 465.4135024451479Q872.5501941861669 465.4135024451479 867.7892224847327 461.0933614568094Q863.0282507832985 456.74383175426465 862.1759780713135 448.2798820628261L862.1759780713135 448.2798820628261L861.3530940735346 448.07416106338144Q856.2688465158303 453.1584086210858 851.7135958138408 456.86138661109015Q847.1583451118513 460.56436460109455 843.6610881212916 462.5627971671286Q840.1932198449383 464.59061844736914 838.0772324220786 464.59061844736914L838.0772324220786 464.59061844736914Q830.2304457289742 464.59061844736914 824.08820445984 461.18152759942865Q817.9753519049121 457.8018254656945 814.4780949143525 451.8946939102113Q810.9808379237928 445.9581736405218 810.9808379237928 438.3464966610684L810.9808379237928 438.3464966610684Q810.9808379237928 432.20425539193417 814.0372642012567 427.56083854732555Q817.123079192927 422.88803298851053 822.2073267506314 421.4185972781913L822.2073267506314 421.4185972781913L862.4110877849645 410.3978294507974L862.6168087844092 401.1109957615801Q862.6168087844092 390.531058647282 857.7382822261494 384.59453837759247Q852.8891443820961 378.65801810790293 843.9843639775618 378.65801810790293L843.9843639775618 378.65801810790293Q838.0772324220786 378.65801810790293 831.4941604398487 381.420557243303Q824.9404771718251 384.18309637870306 818.5925149032462 389.2379552222011L818.5925149032462 389.2379552222011L817.5345211918163 388.620792223867L815.0070917700674 379.51029081988804Q820.5027813266611 376.3363096855986 827.2621855941294 372.83905269503896Q834.050978575804 369.37118441868563 840.1932198449383 367.020087282175Q846.3060723998661 364.6983788598706 849.4800535341556 364.6983788598706L849.4800535341556 364.6983788598706Q858.7962759375793 364.6983788598706 865.3499592056028 367.9899148509856Q871.9330311878327 371.2520621278942 875.4008994641861 377.3061372544093Q878.8981564547457 383.33082366671795 878.8981564547457 392.00049435760116L878.8981564547457 392.00049435760116Q878.8981564547457 394.7630334930013 878.3691595990308 400.8758860479291Q877.8401627433159 407.01812731706326 876.9878900313308 414.5416381538975Q876.165006033552 422.0357602765254 875.6360091778372 429.03027425764475Q875.1070123221223 436.0247882387641 875.1070123221223 440.6682050833727L875.1070123221223 440.6682050833727Q875.1070123221223 445.3116219279813 877.4287207444265 447.86844006393676Q879.7504291667309 450.39586948568575 883.7766830130055 450.39586948568575L883.7766830130055 450.39586948568575Q887.3621061461843 450.39586948568575 890.9769179935695 448.6031579190963Q894.5623411267483 446.810446352507 896.4726075501633 445.10590092853664L896.4726075501633 445.10590092853664L899.440867685008 448.4856030622708Q897.7363222610378 451.2481421976709 894.8856169830185 454.7453991882306Q892.0349117049993 458.24265617879024 888.5376547144397 461.18152759942865Q885.04039772388 464.1497877342734 881.0141438776054 465.4135024451479ZM841.6626555552575 450.19014848624107L841.6626555552575 450.19014848624107Q845.6889094015321 450.19014848624107 851.0670441013003 447.33944320822184Q856.474567515275 444.4887379302026 860.9122633604388 440.02165337083227L860.9122633604388 440.02165337083227L861.9702570718687 418.4503371433466L833.198705863819 427.1200078342298Q827.0564645946847 429.03027425764475 827.0564645946847 436.0247882387641L827.0564645946847 436.0247882387641Q827.0564645946847 441.9319197942472 831.2002732977849 446.07572849734737Q835.3146932866787 450.19014848624107 841.6626555552575 450.19014848624107ZM944.4937665633943 465.4135024451479L944.4937665633943 465.4135024451479Q930.1226853164727 465.4135024451479 924.1861650467831 459.5945370322839Q918.2496447770936 453.7755716194199 918.2496447770936 439.8159323713876L918.2496447770936 439.8159323713876L918.2496447770936 387.7685195118819Q918.2496447770936 382.0671089558435 915.7222153553446 379.7160118193328Q913.1947859335957 377.3943033970284 906.2002719524763 377.18858239758373L906.2002719524763 377.18858239758373L905.3479992404912 375.92486768670926L906.405992951921 369.57690541813037Q911.4902405096254 367.020087282175 916.2512122110595 363.75794000526633Q921.0121839124937 360.46640401415135 924.715161902498 357.40997773668744Q928.4181398925025 354.3241627450172 930.5341273153621 352.32573017898306Q932.6501147382216 350.32729761294894 932.6501147382216 350.32729761294894L932.6501147382216 350.32729761294894L936.882089583941 352.0024543227128Q936.882089583941 352.0024543227128 936.3530927282261 356.0287081689874Q935.8240958725112 360.054962015262 935.1775441599707 367.8723599941601L935.1775441599707 367.8723599941601L966.3001925045312 367.255196995826L966.9173555028652 367.8723599941601L965.0364777936567 379.0988488209987L934.354660162192 378.45229710845825Q933.7081084496515 388.4150712244223 933.2966664507621 401.7281587599142Q932.8558357376664 415.07063500961243 932.8558357376664 431.35198267994906L932.8558357376664 431.35198267994906Q932.8558357376664 442.1376407936919 936.5588137276708 446.60472535306224Q940.2617917176751 451.04242119822624 949.3722931216541 451.04242119822624L949.3722931216541 451.04242119822624Q954.6622616788031 451.04242119822624 959.2175123807926 449.1321547748112Q963.7433743685758 447.22188835139633 963.7433743685758 447.22188835139633L963.7433743685758 447.22188835139633L965.8593617914355 452.7175779079901Q965.8593617914355 452.7175779079901 963.3319323696865 454.627844331405Q960.8045029479374 456.53811075482 957.101524957933 459.06554017656896Q953.3985469679287 461.62235831252434 949.9012899773691 463.53262473593935Q946.4040329868094 465.4135024451479 944.4937665633943 465.4135024451479ZM1014.3213515177623 465.4135024451479L1014.3213515177623 465.4135024451479Q999.9502702708405 465.4135024451479 994.013750001151 459.5945370322839Q988.0772297314616 453.7755716194199 988.0772297314616 439.8159323713876L988.0772297314616 439.8159323713876L988.0772297314616 387.7685195118819Q988.0772297314616 382.0671089558435 985.5498003097125 379.7160118193328Q983.0223708879635 377.3943033970284 976.0278569068441 377.18858239758373L976.0278569068441 377.18858239758373L975.1755841948591 375.92486768670926L976.2335779062889 369.57690541813037Q981.3178254639932 367.020087282175 986.0787971654274 363.75794000526633Q990.8397688668616 360.46640401415135 994.542746856866 357.40997773668744Q998.2457248468703 354.3241627450172 1000.3617122697299 352.32573017898306Q1002.4776996925896 350.32729761294894 1002.4776996925896 350.32729761294894L1002.4776996925896 350.32729761294894L1006.709674538309 352.0024543227128Q1006.709674538309 352.0024543227128 1006.180677682594 356.0287081689874Q1005.6516808268791 360.054962015262 1005.0051291143386 367.8723599941601L1005.0051291143386 367.8723599941601L1036.127777458899 367.255196995826L1036.744940457233 367.8723599941601L1034.8640627480245 379.0988488209987L1004.1822451165599 378.45229710845825Q1003.5356934040194 388.4150712244223 1003.12425140513 401.7281587599142Q1002.6834206920344 415.07063500961243 1002.6834206920344 431.35198267994906L1002.6834206920344 431.35198267994906Q1002.6834206920344 442.1376407936919 1006.3863986820386 446.60472535306224Q1010.089376672043 451.04242119822624 1019.1998780760221 451.04242119822624L1019.1998780760221 451.04242119822624Q1024.489846633171 451.04242119822624 1029.0450973351606 449.1321547748112Q1033.5709593229437 447.22188835139633 1033.5709593229437 447.22188835139633L1033.5709593229437 447.22188835139633L1035.6869467458032 452.7175779079901Q1035.6869467458032 452.7175779079901 1033.1595173240544 454.627844331405Q1030.632087902305 456.53811075482 1026.9291099123009 459.06554017656896Q1023.2261319222965 461.62235831252434 1019.7288749317369 463.53262473593935Q1016.2316179411772 465.4135024451479 1014.3213515177623 465.4135024451479ZM1084.1489364721301 465.4135024451479L1084.1489364721301 465.4135024451479Q1069.7778552252084 465.4135024451479 1063.841334955519 459.5945370322839Q1057.9048146858295 453.7755716194199 1057.9048146858295 439.8159323713876L1057.9048146858295 439.8159323713876L1057.9048146858295 387.7685195118819Q1057.9048146858295 382.0671089558435 1055.3773852640804 379.7160118193328Q1052.8499558423314 377.3943033970284 1045.855441861212 377.18858239758373L1045.855441861212 377.18858239758373L1045.003169149227 375.92486768670926L1046.0611628606569 369.57690541813037Q1051.1454104183613 367.020087282175 1055.9063821197954 363.75794000526633Q1060.6673538212294 360.46640401415135 1064.3703318112339 357.40997773668744Q1068.0733098012383 354.3241627450172 1070.1892972240978 352.32573017898306Q1072.3052846469575 350.32729761294894 1072.3052846469575 350.32729761294894L1072.3052846469575 350.32729761294894L1076.5372594926766 352.0024543227128Q1076.5372594926766 352.0024543227128 1076.0082626369617 356.0287081689874Q1075.479265781247 360.054962015262 1074.8327140687065 367.8723599941601L1074.8327140687065 367.8723599941601L1105.9553624132668 367.255196995826L1106.572525411601 367.8723599941601L1104.6916477023924 379.0988488209987L1074.0098300709278 378.45229710845825Q1073.3632783583873 388.4150712244223 1072.951836359498 401.7281587599142Q1072.5110056464023 415.07063500961243 1072.5110056464023 431.35198267994906L1072.5110056464023 431.35198267994906Q1072.5110056464023 442.1376407936919 1076.2139836364065 446.60472535306224Q1079.9169616264107 451.04242119822624 1089.0274630303898 451.04242119822624L1089.0274630303898 451.04242119822624Q1094.317431587539 451.04242119822624 1098.8726822895285 449.1321547748112Q1103.3985442773114 447.22188835139633 1103.3985442773114 447.22188835139633L1103.3985442773114 447.22188835139633L1105.5145317001711 452.7175779079901Q1105.5145317001711 452.7175779079901 1102.987102278422 454.627844331405Q1100.4596728566733 456.53811075482 1096.7566948666688 459.06554017656896Q1093.0537168766643 461.62235831252434 1089.5564598861047 463.53262473593935Q1086.059202895545 465.4135024451479 1084.1489364721301 465.4135024451479ZM1119.7092806618546 465.4135024451479L1119.7092806618546 465.4135024451479L1120.5615533738396 456.74383175426465Q1126.9095156424187 455.0686750445008 1129.6426660636123 451.7771390533858Q1132.4052051990125 448.4856030622708 1132.4052051990125 442.98991350567707L1132.4052051990125 442.98991350567707L1132.4052051990125 389.2379552222011Q1132.4052051990125 383.33082366671795 1130.4949387755973 380.5682845313179Q1128.5846723521825 377.8351341101242 1124.5584185059079 377.8351341101242L1124.5584185059079 377.8351341101242Q1122.8832617961439 377.8351341101242 1121.0905502295545 378.2465761090136Q1119.2684499487589 378.65801810790293 1119.2684499487589 378.65801810790293L1119.2684499487589 378.65801810790293L1120.120722660744 370.84062012900483Q1125.4106912178931 369.9883474170197 1130.8182146318677 368.9303537055899Q1136.1963493316357 367.8723599941601 1140.6634338910062 366.9319211395558Q1145.1011297361702 365.96209357074514 1147.8342801573638 365.3449305724111Q1150.596819292764 364.6983788598706 1150.596819292764 364.6983788598706L1150.596819292764 364.6983788598706L1151.6548130041938 367.255196995826Q1150.8025402922085 369.37118441868563 1149.8621014376042 376.6595855418688Q1148.8922738687936 383.94798666505204 1148.2751108704597 394.43975763673103Q1147.6285591579192 404.9021398942037 1147.2171171590298 417.27478857509124Q1146.7762864459341 429.6768259701852 1146.7762864459341 442.1376407936919L1146.7762864459341 442.1376407936919Q1146.7762864459341 448.2798820628261 1148.4808318699043 451.13058734084535Q1150.1853772938744 454.010681333071 1154.1822424259426 454.010681333071L1154.1822424259426 454.010681333071Q1156.0925088493577 454.010681333071 1158.8550479847577 453.7755716194199Q1161.5881984059515 453.56985061997517 1161.5881984059515 453.56985061997517L1161.5881984059515 453.56985061997517L1162.0290291190472 454.42212333196034L1160.324483695077 463.53262473593935Q1160.324483695077 463.53262473593935 1158.5317721284875 463.4150698791138Q1156.739060561898 463.2975150222882 1153.8883552838788 463.2093488796691Q1151.0082612916533 463.09179402284354 1147.7461140147448 463.0036278802244Q1144.4545780236297 462.88607302339886 1141.486317888785 462.88607302339886L1141.486317888785 462.88607302339886Q1137.048622043621 462.88607302339886 1131.9643744859166 463.53262473593935Q1126.9095156424187 464.1497877342734 1123.2947037950335 464.7963394468138Q1119.7092806618546 465.4135024451479 1119.7092806618546 465.4135024451479ZM1138.3123367544954 339.7473604986508L1138.3123367544954 339.7473604986508Q1133.0223681973464 339.7473604986508 1130.4949387755973 336.33826965071023Q1127.9675093538483 332.95856751697613 1127.9675093538483 328.93231367070155L1127.9675093538483 328.93231367070155Q1127.9675093538483 323.87745482720356 1131.5529324870272 320.1744768371992Q1135.138355620206 316.4714988471948 1140.428324177355 316.4714988471948L1140.428324177355 316.4714988471948Q1145.5125717350595 316.4714988471948 1148.1575560136341 319.7336461241034Q1150.8025402922085 323.0251821152184 1150.8025402922085 327.25715696093766L1150.8025402922085 327.25715696093766Q1150.8025402922085 332.3414045186421 1147.3052833016488 336.04438250864644Q1143.8374150252957 339.7473604986508 1138.3123367544954 339.7473604986508ZM1237.9988553425492 465.4135024451479L1238.821739340328 456.74383175426465Q1245.169701608907 455.0686750445008 1247.932240744307 451.7771390533858Q1250.694779879707 448.4856030622708 1250.694779879707 442.98991350567707L1250.694779879707 442.98991350567707L1251.517663877486 401.1109957615801Q1251.517663877486 390.531058647282 1246.9918018897029 384.80025937703715Q1242.4365511877131 379.0988488209987 1233.9726014962748 379.0988488209987L1233.9726014962748 379.0988488209987Q1228.8883539385702 379.0988488209987 1223.5983853814212 381.2148362438583Q1218.3084168242722 383.33082366671795 1214.1939968353784 385.85825308846694Q1210.0501881322782 388.4150712244223 1207.9342007094187 390.0902279341862L1207.9342007094187 390.0902279341862Q1207.7284797099742 395.58591749078 1207.4052038537038 403.10942832761424Q1207.0819279974335 410.6329391644485 1206.7880408553697 418.4503371433466Q1206.4647649990993 426.2677351222447 1206.2590439996548 432.6156973908236Q1206.0239342860036 438.9636596594025 1206.0239342860036 442.1376407936919L1206.0239342860036 442.1376407936919Q1206.0239342860036 448.72071277592187 1207.8460345667995 451.3656970544964Q1209.6387461333888 454.010681333071 1213.6649999796637 454.010681333071L1213.6649999796637 454.010681333071Q1215.5458776888722 454.010681333071 1218.3084168242722 453.7755716194199Q1221.0709559596721 453.56985061997517 1221.0709559596721 453.56985061997517L1221.0709559596721 453.56985061997517L1221.4823979585617 454.42212333196034L1219.5721315351466 463.53262473593935Q1219.5721315351466 463.53262473593935 1216.398150400857 463.2975150222882Q1213.2241692665677 463.09179402284354 1208.7864734214038 463.0036278802244Q1204.3487775762399 462.88607302339886 1200.3225237299653 462.88607302339886L1200.3225237299653 462.88607302339886Q1195.8848278848013 462.88607302339886 1191.0063013265417 463.0036278802244Q1186.1571634824882 463.09179402284354 1182.748072634548 463.2093488796691Q1179.3683705008136 463.2975150222882 1179.3683705008136 463.2975150222882L1179.3683705008136 463.2975150222882L1180.6320852116883 454.627844331405Q1186.7743264808223 454.010681333071 1189.2135897599521 451.4538631971156Q1191.652853039082 448.92643377536655 1191.652853039082 442.98991350567707L1191.652853039082 442.98991350567707L1191.652853039082 391.3539426450607Q1191.652853039082 384.18309637870306 1189.3311446167777 381.30300238647743Q1186.980047480267 378.45229710845825 1181.2786369242285 378.45229710845825L1181.2786369242285 378.45229710845825L1178.9569285019243 378.45229710845825L1178.310376789384 377.6000243964731L1178.9569285019243 370.63489912956015Q1186.362884481933 369.37118441868563 1193.1222887494014 367.9899148509856Q1199.911081731076 366.60864528328557 1204.2312227194143 365.5506515718558Q1208.580752421959 364.49265786042594 1208.580752421959 364.49265786042594L1208.580752421959 364.49265786042594L1209.8444671328336 366.1972032843962Q1209.8444671328336 366.1972032843962 1208.9040282782294 370.4291781301155Q1207.9342007094187 374.66115297583474 1207.5227587105294 380.1568425324285L1207.5227587105294 380.1568425324285L1207.9342007094187 380.77400553076257Q1209.8444671328336 379.51029081988804 1213.8707209791082 376.86530654131354Q1217.8969748253828 374.220322262739 1222.6579465268169 371.36961698471976Q1227.4189182282512 368.5189117067005 1231.8566140734151 366.60864528328557Q1236.294309918579 364.6983788598706 1239.056849053979 364.6983788598706L1239.056849053979 364.6983788598706Q1249.1959554551813 364.6983788598706 1256.2786355789199 369.04790856241544Q1263.3907044168648 373.3680495507538 1266.1238548380586 381.420557243303L1266.1238548380586 381.420557243303Q1267.387569548933 380.3625635318732 1271.3256572525886 377.71757925329865Q1275.2343562420376 375.0725949747241 1280.3186037997418 372.10433483987936Q1285.37346264324 369.13607470503456 1290.1344343446742 366.9319211395558Q1294.8954060461083 364.6983788598706 1298.0693871803978 364.6983788598706L1298.0693871803978 364.6983788598706Q1311.411863430096 364.6983788598706 1319.229261408994 372.10433483987936Q1327.0760481020986 379.51029081988804 1327.0760481020986 392.00049435760116L1327.0760481020986 392.00049435760116Q1327.0760481020986 394.7630334930013 1326.635217389003 401.1109957615801Q1326.2237753901134 407.45895803015907 1325.577223677573 415.2763560090571Q1324.960060679239 423.0937539879552 1324.5192299661433 430.2939889685192Q1324.1077879672537 437.4942239490833 1324.1077879672537 442.1376407936919L1324.1077879672537 442.1376407936919Q1324.1077879672537 448.72071277592187 1325.9004995338432 451.3656970544964Q1327.6932111004328 454.010681333071 1331.7194649467071 454.010681333071L1331.7194649467071 454.010681333071Q1333.6297313701223 454.010681333071 1336.3922705055222 453.7755716194199Q1339.125420926716 453.56985061997517 1339.125420926716 453.56985061997517L1339.125420926716 453.56985061997517L1339.5662516398118 454.42212333196034L1337.6559852163966 463.53262473593935Q1337.6559852163966 463.53262473593935 1335.7457187929817 463.4150698791138Q1333.8354523695668 463.2975150222882 1330.867192234722 463.2093488796691Q1327.9283208140837 463.09179402284354 1324.6367848229686 463.0036278802244Q1321.3452488318537 462.88607302339886 1318.4063774112153 462.88607302339886L1318.4063774112153 462.88607302339886Q1314.9972865632747 462.88607302339886 1311.411863430096 463.09179402284354Q1307.8264402969173 463.2975150222882 1304.6524591626278 463.53262473593935Q1301.4784780283383 463.73834573538403 1299.4506567480978 463.9440667348287Q1297.4522241820637 464.1497877342734 1297.4522241820637 464.1497877342734L1297.4522241820637 464.1497877342734L1298.5102178934935 455.4801170433901Q1304.6524591626278 454.42212333196034 1307.1798885843766 451.6595841965603Q1309.707318006126 448.92643377536655 1309.707318006126 442.98991350567707L1309.707318006126 442.98991350567707L1310.5595907181107 401.1109957615801Q1310.5595907181107 390.531058647282 1306.0043400161214 384.80025937703715Q1301.4784780283383 379.0988488209987 1293.0145283368997 379.0988488209987L1293.0145283368997 379.0988488209987Q1287.9302807791953 379.0988488209987 1282.9635880783164 381.00911524441364Q1277.9675066632312 382.8899929536222 1273.8530866743374 385.4468110895776Q1269.7386666854438 387.9742405113266 1267.387569548933 389.67878593529684L1267.387569548933 389.67878593529684L1265.0658611266288 442.1376407936919Q1265.0658611266288 448.2798820628261 1266.7704065505989 451.13058734084535Q1268.4455632603629 454.010681333071 1272.4718171066374 454.010681333071L1272.4718171066374 454.010681333071Q1274.3820835300523 454.010681333071 1277.1446226654525 453.7755716194199Q1279.8777730866461 453.56985061997517 1279.8777730866461 453.56985061997517L1279.8777730866461 453.56985061997517L1280.3186037997418 454.42212333196034L1278.6140583757717 463.53262473593935Q1278.6140583757717 463.53262473593935 1276.8213468091824 463.4150698791138Q1275.0286352425928 463.2975150222882 1272.1485412503673 463.2093488796691Q1269.2978359723481 463.09179402284354 1266.0356886954394 463.0036278802244Q1262.7441527043245 462.88607302339886 1259.7758925694798 462.88607302339886L1259.7758925694798 462.88607302339886Q1256.3961904357457 462.88607302339886 1252.6932124457412 463.2975150222882Q1248.9902344557368 463.73834573538403 1245.6105323220027 464.1497877342734Q1242.2308301882686 464.59061844736914 1240.1148427654089 465.0020604462585Q1237.9988553425492 465.4135024451479 1237.9988553425492 465.4135024451479L1237.9988553425492 465.4135024451479ZM1398.167347767341 465.4135024451479L1398.167347767341 465.4135024451479Q1384.8248715176426 465.4135024451479 1374.891486115885 459.50637088966477Q1364.958100714127 453.56985061997517 1359.344856300708 443.1074683625026Q1353.7316118872886 432.6156973908236 1353.7316118872886 418.65605814279127L1353.7316118872886 418.65605814279127Q1353.7316118872886 407.8704000290484 1357.4345898772929 398.1427356267354Q1361.1375678672973 388.4150712244223 1367.691251135321 380.8915603875881Q1374.2449344033446 373.3680495507538 1382.620717952164 369.04790856241544Q1390.9671127867769 364.6983788598706 1400.4890561896452 364.6983788598706L1400.4890561896452 364.6983788598706Q1432.023146533095 364.6983788598706 1432.023146533095 395.3801964913353L1432.023146533095 395.3801964913353Q1432.023146533095 398.1427356267354 1431.6117045342057 401.1109957615801Q1431.1708738211098 404.0498671822185 1430.7594318222207 405.7544126061888L1430.7594318222207 405.7544126061888L1427.9968926868205 408.2818420279378L1369.6015175587358 408.2818420279378Q1369.395796559291 427.1200078342298 1376.4784766830296 438.0232208047982Q1383.5611568067682 448.92643377536655 1396.4628023433709 450.719145341956Q1409.3938365941797 452.5118569085454 1426.9388989753904 444.4887379302026L1426.9388989753904 444.4887379302026L1428.2026136862653 444.90017992909196L1430.5537108227759 451.04242119822624Q1426.3217359770567 454.010681333071 1420.5027705641926 457.3903834668051Q1414.6838051513287 460.77008560053923 1408.7472848816392 463.09179402284354Q1402.8107646119495 465.4135024451479 1398.167347767341 465.4135024451479ZM1370.4537902707211 400.4644440490397L1370.4537902707211 400.4644440490397L1408.7472848816392 398.55417762562473Q1411.9212660159285 398.1427356267354 1412.9792597273583 397.0847419153056Q1414.0372534387882 396.02674820387574 1414.0372534387882 392.8527670695863L1414.0372534387882 392.8527670695863Q1414.0372534387882 384.38881737814773 1409.4820027367987 379.9511215329838Q1404.9267520348092 375.4840369736135 1396.4628023433709 375.4840369736135L1396.4628023433709 375.4840369736135Q1386.7351379410577 375.4840369736135 1379.5349029604936 382.1552750984626Q1372.364056694136 388.82651322331174 1370.4537902707211 400.4644440490397Z " fill="green" transform="matrix(0.6170321733450577,0,0,0.6170321733450576,-8.604360110528729,58.44947762125517)"/></g></svg>