<svg xmlns="http://www.w3.org/2000/svg" version="1.1" xmlns:xlink="http://www.w3.org/1999/xlink" xmlns:svgjs="http://svgjs.dev/svgjs" width="100%" height="100%" viewBox="0 0 1000 600"><rect width="1000" height="600" x="0" y="0" fill="#050505"/><g><rect width="333.3333333333333" height="333.3333333333333" y="235.42111767725805" fill="#616161" transform="matrix(0.5863071111390695,0,0,0.5863071111390696,0,64.25309777471573)" x="213.1988525390625"/><path d="M299.8915854626974 475.961612490734L299.8915854626974 475.961612490734Q279.4014919409602 475.961612490734 264.32328571580393 467.42146664121606Q249.21379690511836 458.85003820616873 240.89262915430598 443.2087454414838Q232.57146140349363 427.5361700912696 232.57146140349363 406.38914227341564L232.57146140349363 406.38914227341564Q232.57146140349363 389.246285403321 238.42130489748578 374.7311657176934Q244.27114839147794 360.2160460320658 254.84466230040493 349.51740178102136Q265.44945879486124 338.8187575299769 279.7456003817832 332.93763145045534Q294.04174196870525 327.0877879564632 311.15331625327053 327.0877879564632L311.15331625327053 327.0877879564632Q318.16061541184934 327.0877879564632 325.1366319848988 327.8698525946975Q332.1126485579483 328.68319981846105 337.7435139532348 329.80937289751836Q343.3743793485214 330.93554597657567 346.8780289278109 331.7176106148099Q350.3503959215709 332.4996752530442 350.3503959215709 332.4996752530442L350.3503959215709 332.4996752530442L351.2575909019226 333.8448264308071Q351.2575909019226 333.8448264308071 350.1314178228653 338.91260528656494Q349.00524474380796 343.9803841423229 347.660093566045 352.5518125773702Q346.31494238828213 361.09195842688814 345.62672550663603 371.47777682263893L345.62672550663603 371.47777682263893L334.8029509134741 372.3536892174613Q334.8029509134741 372.3536892174613 335.14705935429714 368.6623441249956Q335.4911677951202 364.93971644700065 335.4911677951202 361.3422191111231L335.4911677951202 361.3422191111231Q335.4911677951202 350.7374226166668 327.263847800896 345.57579600432075Q319.0365278066717 340.38288680644536 302.394192305047 340.38288680644536L302.394192305047 340.38288680644536Q287.2847034943614 340.38288680644536 276.1481030459057 347.5778814782004Q264.9802200119207 354.80415873548486 258.91139841922296 367.848996901232Q252.84257682652526 380.9251176525086 252.84257682652526 398.9438869174256L252.84257682652526 398.9438869174256Q252.84257682652526 418.77704614304605 259.25550686004607 433.51114392737924Q265.6684368935669 448.27652429724174 277.2742761249631 456.503844291466Q288.8801153563592 464.6998817001609 304.3962777789267 464.6998817001609L304.3962777789267 464.6998817001609Q319.72474468831786 464.6998817001609 329.07823776159944 456.03460550852543Q338.43173083488097 447.36932931689006 342.68616246687526 429.13158195326747L342.68616246687526 429.13158195326747L353.5099370600372 428.22438697291574Q353.5099370600372 428.22438697291574 352.82172017839105 431.60290621008767Q352.16478588227426 434.9814254472596 351.1324605598051 440.4871605004287Q350.1314178228653 446.0241781391271 349.13037508592544 452.4371081726479Q348.0980497634563 458.85003820616873 347.4411154673395 464.95014238439586L347.4411154673395 464.95014238439586L346.0646817040472 466.95222785827553Q346.0646817040472 466.95222785827553 340.12099045346696 469.20457401639015Q334.1460166173573 471.4569201745048 323.79148080713594 473.7092663326194Q313.40566241138515 475.961612490734 299.8915854626974 475.961612490734ZM437.0657230089839 472.1451370561509L422.6444510799445 477.0877855697913Q422.6444510799445 477.0877855697913 421.08032180347595 472.0200067140334Q419.51619252700743 466.95222785827553 416.7946075859523 457.94284322581706Q414.1043052304265 448.9334585933585 410.256547210314 436.88966316455117Q406.44007177573087 424.84586773574375 402.1543575582072 410.8938345896449Q397.86864334068355 396.9105188580166 393.14497292574873 382.0512907315659Q388.4213025108139 367.19206260511527 383.69763209587904 352.5518125773702L383.69763209587904 352.5518125773702Q381.66426403647 346.0137522017319 376.72161552282955 342.979341405383Q371.7476844236598 339.9449306090342 362.9572778899069 339.6946699247992L362.9572778899069 339.6946699247992L362.51932169249574 338.8187575299769L364.0834509689642 329.1211560158722Q364.0834509689642 329.1211560158722 367.024014008725 329.24628635798973Q369.9645770484857 329.34013411457784 374.21900868048 329.4652644566953Q378.5047228980037 329.5591122132834 382.9155674576448 329.6842425554009Q387.29512943175655 329.80937289751836 390.2356924715174 329.80937289751836L390.2356924715174 329.80937289751836Q394.7403847877466 329.80937289751836 400.4650979396213 329.4652644566953Q406.22109367702535 329.1211560158722 411.63298097360627 328.5580694763436Q417.01358568465787 327.99498293681495 420.51723526394727 327.65087449599184Q424.02088484323673 327.3067660551688 424.02088484323673 327.3067660551688L424.02088484323673 327.3067660551688L424.67781913935346 328.9021779171667L423.7706241590017 337.6925844509195Q415.88741260560056 338.13054064833074 411.5078506314888 339.1315833852706Q407.128288657377 340.1639087077398 405.4390290387911 341.9470160829138Q403.7497694202051 343.7614060436173 403.7497694202051 347.13992528078927L403.7497694202051 347.13992528078927Q403.7497694202051 348.70405455725773 405.31389869667356 355.1482671763079Q406.8780279731421 361.5611972098287 409.38063481549165 370.91469028311025Q411.85195907231184 380.23690077086246 414.8863698686607 391.18580570614193Q417.9207806650096 402.1034280558919 420.9551914613585 412.6769419648189Q424.02088484323673 423.2817384592753 426.4922091000569 432.0408624074988Q428.9635333568771 440.8312689412517 430.5276626333456 446.1180258957152Q432.12307449534353 451.4360654357081 432.12307449534353 451.4360654357081L432.12307449534353 451.4360654357081L434.1564425547525 451.4360654357081Q437.0657230089839 443.7718319810125 440.9134810290964 433.7301220260848Q444.7299564636795 423.7196946566865 449.0156706812031 412.6769419648189Q453.30138489872684 401.6341892729514 457.24299067542745 390.8416972653188Q461.184596452128 380.0179226721569 464.43798534718246 370.91469028311025Q467.6913742422369 361.7801753085343 469.6308945450579 355.5862233737191Q471.5391322623494 349.3922714389039 471.5391322623494 347.82814216243537L471.5391322623494 347.82814216243537Q471.5391322623494 343.0731891619712 467.9416349264719 340.94597334597404Q464.312855005065 338.8187575299769 455.9916872542526 338.8187575299769L455.9916872542526 338.8187575299769L444.2920002662683 338.8187575299769L443.8227614833278 337.91156254962516L445.16791266109067 328.2139610355205Q445.16791266109067 328.2139610355205 450.1418437602605 328.5580694763436Q455.0844922739009 328.9021779171667 462.52974762989095 329.34013411457784Q469.94372040035154 329.80937289751836 477.38897575634155 329.80937289751836L477.38897575634155 329.80937289751836Q482.8008630529225 329.80937289751836 488.5255762047972 329.6842425554009Q494.28157194220125 329.5591122132834 498.22317771890187 329.34013411457784Q502.16478349560236 329.1211560158722 502.16478349560236 329.1211560158722L502.16478349560236 329.1211560158722L500.3503935348989 339.6946699247992Q493.3743769618495 339.9449306090342 490.68407460632375 341.9470160829138Q487.96248966526855 343.9803841423229 485.4911654084483 350.51844451796114L485.4911654084483 350.51844451796114L437.0657230089839 472.1451370561509ZM512.9885580887644 475.961612490734L512.9885580887644 475.961612490734Q506.6694758118317 475.961612490734 503.50993467336536 472.0200067140334Q500.3503935348989 468.07840093733284 500.3503935348989 463.1357524236924L500.3503935348989 463.1357524236924Q500.3503935348989 457.28590892970027 504.19815155501146 453.2191728108822Q508.0146269895946 449.18371927759347 514.3337092665273 449.18371927759347L514.3337092665273 449.18371927759347Q520.6215089579306 449.18371927759347 523.9061804385144 453.00019471217655Q527.1595693335689 456.8166701467597 527.1595693335689 462.0095793446351L527.1595693335689 462.0095793446351Q527.1595693335689 467.64044473992163 523.3430938989858 471.8010286153278Q519.4953358788733 475.961612490734 512.9885580887644 475.961612490734Z " fill="#050505" transform="matrix(0.5863071111390695,0,0,0.5863071111390696,0,64.25309777471573)"/><path d="M632.6209185170337 477.08779643732845L632.6209185170337 477.08779643732845L629.8655135537765 474.18402351451124L630.1622494728965 472.975884415237Q634.5920928369023 468.54604105123116 637.0295664582452 463.6710938085453Q639.4882355023824 458.77495114306527 640.4632249509195 451.8440478893337Q641.459409822251 444.89194921280784 641.459409822251 434.50619204360765L641.459409822251 434.50619204360765L641.459409822251 387.19800836676114Q641.459409822251 382.4714290836353 640.1664890317996 380.7122089917096Q638.8735682413482 378.97418432257814 635.3551280574967 378.97418432257814L635.3551280574967 378.97418432257814Q634.1469889582224 378.97418432257814 632.6845047854166 379.186138550521Q631.2432160354051 379.4192882012581 631.2432160354051 379.4192882012581L631.2432160354051 379.4192882012581L631.8578832964395 373.781305737978Q635.3551280574967 373.3150064365037 639.1703041604682 372.6367529070866Q642.9854802634397 371.9373039548751 646.3555524877311 371.1742687342808Q649.7044292892283 370.41123351368657 651.760385300274 369.96612963500655Q653.8163413113199 369.49983033353226 653.8163413113199 369.49983033353226L653.8163413113199 369.49983033353226L654.5793765319141 371.3438321166351Q653.3712374326399 373.4633743960637 652.6717884804284 391.7762196903269Q651.9935349510113 410.0890649845901 651.9935349510113 442.454475591465L651.9935349510113 442.454475591465Q651.9935349510113 453.4337045989052 647.0338060171483 462.3569775952996Q642.0740770832854 471.30144601448836 632.6209185170337 477.08779643732845ZM646.0376211458168 348.45277549880615L646.0376211458168 348.45277549880615Q642.6887443443197 348.45277549880615 640.632788333274 346.2272561054061Q638.5556368994339 344.0229321348003 638.5556368994339 340.6528599105088L638.5556368994339 340.6528599105088Q638.5556368994339 336.83768380753736 641.162673903131 334.2518422266345Q643.748515484034 331.6660006457316 647.5636915870055 331.6660006457316L647.5636915870055 331.6660006457316Q650.7642004289427 331.6660006457316 652.9049381311656 333.78554292516014Q655.0456758333885 335.92628062738305 655.0456758333885 339.44472081123456L655.0456758333885 339.44472081123456Q655.0456758333885 343.259896914206 652.4598342524855 345.84573849510895Q649.8527972487884 348.45277549880615 646.0376211458168 348.45277549880615ZM715.0287223412181 442.1365442495507L715.6221941794581 435.88389452523626Q720.2004055030238 434.675755425962 722.1927752456868 432.3018680730019Q724.1851449883497 429.9279807200419 724.1851449883497 425.96443665751036L724.1851449883497 425.96443665751036L724.7786168265897 395.7609591756527Q724.7786168265897 388.13060696970973 721.5145217162697 383.9974995248239Q718.2292311831553 379.8855875027324 712.1249494184009 379.8855875027324L712.1249494184009 379.8855875027324Q708.4581412749894 379.8855875027324 704.642965172018 381.411657943921Q700.8277890690464 382.9377283851096 697.8604298778464 384.7605347454182Q694.871875263852 386.6045365285211 693.3458048226635 387.8126756277954L693.3458048226635 387.8126756277954Q693.1974368631033 391.7762196903269 692.9642872123663 397.20224792566415Q692.7311375616291 402.6282761610014 692.5191833336862 408.2662586242815Q692.2860336829491 413.9042410875616 692.1376657233891 418.4824524111274Q691.9681023410349 423.0606637346932 691.9681023410349 425.3497693964761L691.9681023410349 425.3497693964761Q691.9681023410349 430.09754410239617 693.2822185542806 432.0051321538819Q694.575139344732 433.91272020536763 697.4789122675493 433.91272020536763L697.4789122675493 433.91272020536763Q698.8354193263835 433.91272020536763 700.8277890690464 433.7431568230134Q702.8201588117092 433.5947888634534 702.8201588117092 433.5947888634534L702.8201588117092 433.5947888634534L703.1168947308292 434.20945612448764L701.7391922492006 440.78003719071637Q701.7391922492006 440.78003719071637 699.4500865874178 440.6104738083621Q697.1609809256349 440.4621058488021 693.9604720836977 440.3985195804192Q690.7599632417605 440.3137378892421 687.8561903189434 440.3137378892421L687.8561903189434 440.3137378892421Q684.655681477006 440.3137378892421 681.1372412931546 440.5468875399792Q677.6399965320975 440.78003719071637 675.1813274879603 440.9919914186592Q672.7438538666173 441.2251410693964 672.7438538666173 441.2251410693964L672.7438538666173 441.2251410693964L673.5068890872117 434.97249134508195Q677.9367324512175 434.20945612448764 679.759538811526 432.2170863818248Q681.6035405946288 430.2459120619562 681.6035405946288 425.96443665751036L681.6035405946288 425.96443665751036L681.6035405946288 388.7240788079497Q681.6035405946288 383.5523956461439 679.9291021938803 381.4752442123039Q678.2334683703375 379.4192882012581 674.1215563482459 379.4192882012581L674.1215563482459 379.4192882012581L672.4471179474973 379.4192882012581L671.980818646023 378.80462094022386L672.4471179474973 373.781305737978Q677.7883644916574 372.8699025578237 682.6633117343432 371.8737176864923Q687.5594543998234 370.8775328151608 690.6751815505834 370.11449759456656Q693.8121041241377 369.35146237397225 693.8121041241377 369.35146237397225L693.8121041241377 369.35146237397225L694.7235073042921 370.5807968960408Q694.7235073042921 370.5807968960408 694.0452537748748 373.632937778418Q693.3458048226635 376.6850786607952 693.0490689035435 380.6486227233267L693.0490689035435 380.6486227233267L693.3458048226635 381.0937266020067Q694.7235073042921 380.1823234218524 697.6908664954921 378.27473537036667Q700.6794211094864 376.36714731888094 704.1130796021607 374.3959729990123Q707.5467380948351 372.4036032563494 710.7472469367723 370.962314506338Q713.9477557787095 369.49983033353226 715.7917575618123 369.49983033353226L715.7917575618123 369.49983033353226Q725.393284087624 369.49983033353226 731.0524619736984 374.84107687769233Q736.6904444369785 380.1823234218524 736.6904444369785 389.190378109424L736.6904444369785 389.190378109424Q736.6904444369785 391.1827478520869 736.3937085178585 395.7609591756527Q736.0757771759442 400.3391704992185 735.6306732972641 405.97715296249856Q735.1643739957899 411.6151354257787 734.8676380766699 416.80801401037877Q734.5497067347555 422.0008925949789 734.5497067347555 425.3497693964761L734.5497067347555 425.3497693964761Q734.5497067347555 429.7796127604819 735.7790412568241 431.8355687715276Q736.9871803560984 433.91272020536763 739.8909532789157 433.91272020536763L739.8909532789157 433.91272020536763Q741.2686557605442 433.91272020536763 743.2610255032072 433.7431568230134Q745.2321998230758 433.5947888634534 745.2321998230758 433.5947888634534L745.2321998230758 433.5947888634534L745.55013116499 434.20945612448764L744.3207966429214 440.78003719071637Q744.3207966429214 440.78003719071637 743.0278758524701 440.6952554995392Q741.7349550620186 440.6104738083621 739.6578036281785 440.5468875399792Q737.6018476171328 440.4621058488021 735.249155686967 440.3985195804192Q732.8752683340069 440.3137378892421 730.7345306317841 440.3137378892421L730.7345306317841 440.3137378892421Q728.2970570104412 440.3137378892421 725.6264337383611 440.6104738083621Q722.955810466281 440.9284051502764 720.5183368449382 441.2251410693964Q718.0808632235953 441.5430724113107 716.5547927824067 441.8398083304307Q715.0287223412181 442.1365442495507 715.0287223412181 442.1365442495507L715.0287223412181 442.1365442495507ZM806.1266495110597 442.1365442495507L806.1266495110597 442.1365442495507Q800.0223677463052 442.1365442495507 796.5887092536309 439.0208170987906Q793.1550507609566 435.88389452523626 792.5403834999223 429.7796127604819L792.5403834999223 429.7796127604819L791.9257162388881 429.6312448009219Q788.2801035182708 433.2980529443334 784.9948129851564 435.9686762164134Q781.7095224520422 438.63929948849346 779.1872671395221 440.0805882385049Q776.665011827002 441.5430724113107 775.1389413858135 441.5430724113107L775.1389413858135 441.5430724113107Q769.5009589225333 441.5430724113107 765.0711155585276 439.0844033671735Q760.6412721945218 436.6469297458306 758.140212304796 432.3866497641791Q755.6179569922759 428.10517435973327 755.6179569922759 422.6155598560132L755.6179569922759 422.6155598560132Q755.6179569922759 418.1857164920074 757.8222809628817 414.8368396905102Q760.0478003562818 411.4667674662187 763.6934130768989 410.4069963265044L763.6934130768989 410.4069963265044L792.6887514594823 402.4587127786471L792.8583148418365 395.7609591756527Q792.8583148418365 388.13060696970973 789.3398746579851 383.8491315652639Q785.8214344741336 379.5676561608181 779.4204167902592 379.5676561608181L779.4204167902592 379.5676561608181Q775.1389413858135 379.5676561608181 770.4123621026877 381.560025903481Q765.6857828195618 383.5523956461439 761.107571495996 387.19800836676114L761.107571495996 387.19800836676114L760.3445362754018 386.7529044880811L758.5217299150931 380.1823234218524Q762.4852739776246 377.89321776006955 767.3602212203105 375.37096244754946Q772.2563638857905 372.8699025578237 776.665011827002 371.1742687342808Q781.0948551910078 369.49983033353226 783.3839608527908 369.49983033353226L783.3839608527908 369.49983033353226Q790.1029098785795 369.49983033353226 794.8294891617052 371.8737176864923Q799.556068444831 374.22640961665803 802.078323757351 378.59266671228096Q804.6005790698711 382.9377283851096 804.6005790698711 389.190378109424L804.6005790698711 389.190378109424Q804.6005790698711 391.1827478520869 804.2190614595739 395.59139579329843Q803.8375438492768 400.0212391573042 803.2228765882426 405.44726739264144Q802.6082093272082 410.8521002051844 802.2266917169111 415.8966108302245Q801.845174106614 420.9411214552646 801.845174106614 424.28999825676175L801.845174106614 424.28999825676175Q801.845174106614 427.638875058259 803.5408079301568 429.4828768413619Q805.2152463309054 431.3056832016705 808.1190192537226 431.3056832016705L808.1190192537226 431.3056832016705Q810.7048608346255 431.3056832016705 813.2907024155284 430.01276241121906Q815.8977394192256 428.71984162076757 817.2754419008542 427.49050709869897L817.2754419008542 427.49050709869897L819.3949841802828 429.9279807200419Q818.1868450810085 431.9203504627048 816.1308890699627 434.4426057752248Q814.0537376361227 436.96486108774485 811.552677746397 439.0844033671735Q809.0304224338769 441.2251410693964 806.1266495110597 442.1365442495507ZM777.7459783895106 431.1573152421105L777.7459783895106 431.1573152421105Q780.6497513123278 431.1573152421105 784.5285136836821 429.1013592310647Q788.4284714778308 427.04540322001895 791.6289803197681 423.8236989552875L791.6289803197681 423.8236989552875L792.3920155403623 408.2662586242815L771.6416966247563 414.5189083485959Q767.2118532607504 415.8966108302245 767.2118532607504 420.9411214552646L767.2118532607504 420.9411214552646Q767.2118532607504 425.2014014369161 770.1792124519504 428.18995605091044Q773.1677670659449 431.1573152421105 777.7459783895106 431.1573152421105ZM827.3432677281401 476.47312917629415L827.3432677281401 476.47312917629415L828.1063029487344 470.538410793894Q832.9812501914201 469.92374353285976 834.4437343642259 467.867787521814Q835.8850231142374 465.79063608797395 835.8850231142374 459.5379863636595L835.8850231142374 459.5379863636595Q835.8850231142374 457.10051274231665 835.9698048054145 452.3739334591908Q836.0333910737974 447.64735417606505 836.1181727649745 442.5180618598478Q836.1817590333574 437.40996496642487 836.1817590333574 434.20945612448764L836.1817590333574 434.20945612448764L836.1817590333574 388.7240788079497Q836.1817590333574 383.5523956461439 834.5073206326088 381.4752442123039Q832.8328822318601 379.4192882012581 828.7209702097687 379.4192882012581L828.7209702097687 379.4192882012581L827.0253363862257 379.4192882012581L826.5802325075458 378.80462094022386L827.0253363862257 373.781305737978Q832.3665829303859 372.8699025578237 837.262725595866 371.8737176864923Q842.1376728385518 370.8775328151608 845.2745954121061 370.11449759456656Q848.3903225628662 369.35146237397225 848.3903225628662 369.35146237397225L848.3903225628662 369.35146237397225L849.3229211658147 370.5807968960408Q849.3229211658147 370.5807968960408 848.7082539047805 373.1666384769437Q848.0935866437462 375.75248005784664 847.7968507246262 378.80462094022386L847.7968507246262 378.80462094022386L848.3903225628662 379.8855875027324Q855.1092715886548 375.1590082196066 859.7722646033978 372.5519712159094Q864.4140621953464 369.96612963500655 866.1096960188893 369.96612963500655L866.1096960188893 369.96612963500655Q874.9481873241066 369.96612963500655 881.5187683903354 374.0144553887152Q888.0681540337698 378.0415857196295 891.8197438683583 385.29042031527536Q895.5501382801527 392.5392549109212 895.5501382801527 402.1619768595271L895.5501382801527 402.1619768595271Q895.5501382801527 410.4069963265044 892.5827790889527 417.65583092215024Q889.5942244749583 424.9046655177961 884.3377596219754 430.3942800215162Q879.0812947689924 435.88389452523626 872.2139777836437 439.0208170987906Q865.346660798295 442.1365442495507 857.5467452099978 442.1365442495507L857.5467452099978 442.1365442495507Q855.7239388496891 442.1365442495507 853.1380972687863 441.9881762899907Q850.5310602650891 441.8398083304307 848.4751042540433 441.6914403708707Q846.4191482429976 441.5430724113107 846.4191482429976 441.5430724113107L846.4191482429976 441.5430724113107Q846.4191482429976 445.35824851428214 846.4827345113804 449.32179257681366Q846.5675162025575 453.2853366393452 846.5675162025575 457.24888070187666L846.5675162025575 457.24888070187666Q846.5675162025575 464.26456564678534 848.008804952569 466.78682095930543Q849.4712891253747 469.30907627182546 853.7315691070263 469.30907627182546L853.7315691070263 469.30907627182546Q854.9609036290949 469.30907627182546 856.3386061107235 469.2242945806483Q857.7163085923521 469.1607083122654 858.9244476916264 469.1607083122654L858.9244476916264 469.1607083122654L859.2423790335406 469.6058121909454L858.013044511472 475.41335803657984Q856.1902381511634 475.41335803657984 854.3462363680605 475.41335803657984Q852.5234300077519 475.41335803657984 850.7642099158262 475.41335803657984Q849.0049898239005 475.41335803657984 847.1821834635919 475.41335803657984Q845.338181680489 475.41335803657984 843.5153753201803 475.41335803657984L843.5153753201803 475.41335803657984Q839.2338999157346 475.41335803657984 835.5035055039402 475.64650768731696Q831.7731110921459 475.87965733805413 829.5475916987459 476.17639325717414Q827.3432677281401 476.47312917629415 827.3432677281401 476.47312917629415ZM861.8282206144436 433.7431568230134L861.8282206144436 433.7431568230134Q872.0444144012895 433.7431568230134 877.936741938101 426.81225356928184Q883.8078740521182 419.860154892756 883.8078740521182 407.7999593228072L883.8078740521182 407.7999593228072Q883.8078740521182 400.0212391573042 881.1372507800381 393.8533711241669Q878.4666275079582 387.66430766823544 873.8884161843923 383.9974995248239Q869.3102048608265 380.3306913814124 863.6510269747521 380.3306913814124L863.6510269747521 380.3306913814124Q860.598886092375 380.3306913814124 856.1902381511634 382.4078428152525Q851.7603947871577 384.4637988262982 847.7968507246262 387.8126756277954L847.7968507246262 387.8126756277954Q847.4789193827119 394.0653253521098 847.1821834635919 401.5473095984928Q846.8642521216775 409.0292938448758 846.7158841621176 416.6596460508188Q846.5675162025575 424.28999825676175 846.5675162025575 430.8605793229905L846.5675162025575 430.8605793229905Q849.6196570849347 432.0687184222648 853.8163507982034 432.9165353340362Q858.013044511472 433.7431568230134 861.8282206144436 433.7431568230134ZM936.1393729312106 442.1365442495507L936.1393729312106 442.1365442495507Q927.4492495855533 442.1365442495507 920.7303005597646 437.87626426789916Q914.0113515339758 433.5947888634534 910.2809571221816 425.9008503891275Q906.5505627103871 418.1857164920074 906.5505627103871 408.2662586242815L906.5505627103871 408.2662586242815Q906.5505627103871 397.28702961684127 911.1923603023358 388.51212458000686Q915.8553533170788 379.73721954317244 923.9308094017017 374.60792722695516Q932.0274609091191 369.49983033353226 941.946918776845 369.49983033353226L941.946918776845 369.49983033353226Q950.6370421225022 369.49983033353226 957.355991148291 373.781305737978Q964.0749401740795 378.0415857196295 967.805334585874 385.67193792557254Q971.5569244204626 393.3022901315155 971.5569244204626 403.3913113815957L971.5569244204626 403.3913113815957Q971.5569244204626 414.2221724294759 966.8939314057197 423.0606637346932Q962.252133813771 431.9203504627048 954.2402639975309 437.02844735612774Q946.2283941812907 442.1365442495507 936.1393729312106 442.1365442495507ZM940.4208483356563 434.675755425962L940.4208483356563 434.675755425962Q948.9626037217537 434.675755425962 954.0071143467937 427.72365674943615Q959.0304295490396 420.7715580729103 959.0304295490396 408.8809258853158L959.0304295490396 408.8809258853158Q959.0304295490396 399.7245032381842 956.2962200085767 392.7088182932755Q953.5408150453195 385.67193792557254 948.6658678026337 381.708393863041Q943.7697251371536 377.74484980050954 937.3687074532792 377.74484980050954L937.3687074532792 377.74484980050954Q928.8269520671819 377.74484980050954 923.7824414421418 384.7605347454182Q918.759126239896 391.7762196903269 918.759126239896 403.8364152602757L918.759126239896 403.8364152602757Q918.759126239896 412.9928379074073 921.4933357803588 419.94493658393316Q924.248740743616 426.87583983766467 929.1236879863019 430.7757976318133Q934.0198306517821 434.675755425962 940.4208483356563 434.675755425962ZM981.1584509462742 442.1365442495507L981.1584509462742 442.1365442495507L981.7731182073086 435.88389452523626Q986.2029615713143 434.675755425962 987.96218166324 432.7681673744762Q989.7214017551659 430.8605793229905 990.0181376742858 427.638875058259Q990.3148735934058 424.43836621632175 990.3148735934058 419.711786933196L990.3148735934058 419.711786933196L990.3148735934058 344.78596735539463Q990.3148735934058 340.97079125242317 989.6366200639886 339.2115711604974Q988.9583665345715 337.45235106857166 987.0507784830858 337.00724718989164Q985.1431904316 336.54094788841735 981.3280143286286 337.00724718989164L981.3280143286286 337.00724718989164L980.8617150271543 336.68931584797735L981.4763822881885 331.4964372633773Q987.1143647514687 330.7334020427829 992.773542637543 329.67363090306867Q998.4115251008232 328.61385976335436 1004.0495075641032 327.08778932216575L1004.0495075641032 327.08778932216575L1004.9821061670518 329.05896364203437Q1004.3674389060175 330.13993020454296 1003.7527716449831 336.0110623185602Q1003.138104383949 341.8821944325774 1002.6082188140917 351.4201346900062Q1002.0783332442346 360.95807494743497 1001.6120339427603 373.0182705173837Q1001.1669300640804 385.0784660873325 1000.9337804133431 398.4951687161156Q1000.700630762606 411.933066767693 1000.700630762606 425.3497693964761L1000.700630762606 425.3497693964761Q1000.700630762606 429.9279807200419 1001.9299652846746 431.9203504627048Q1003.138104383949 433.91272020536763 1006.0418773067661 433.91272020536763L1006.0418773067661 433.91272020536763L1011.3831238509263 433.5947888634534L1011.6798597700462 434.20945612448764L1010.4717206707719 440.78003719071637Q1008.034247049429 440.6104738083621 1003.9859212957203 440.4621058488021Q999.9375955420118 440.3137378892421 996.8854546596344 440.3137378892421L996.8854546596344 440.3137378892421Q994.1300496963773 440.3137378892421 989.9333559831086 440.8436234590992Q985.73666226984 441.3735090289564 981.1584509462742 442.1365442495507ZM1021.0058457995322 442.1365442495507L1021.0058457995322 442.1365442495507L1021.5993176377722 435.88389452523626Q1026.1775289613379 434.675755425962 1028.1698987040008 432.3018680730019Q1030.1622684466638 429.9279807200419 1030.1622684466638 425.96443665751036L1030.1622684466638 425.96443665751036L1030.1622684466638 387.19800836676114Q1030.1622684466638 382.9377283851096 1028.784565965035 380.9453586424467Q1027.4068634834064 378.97418432257814 1024.5030905605893 378.97418432257814L1024.5030905605893 378.97418432257814Q1023.2949514613149 378.97418432257814 1021.9808352480693 379.2709202416981Q1020.6879144576178 379.5676561608181 1020.6879144576178 379.5676561608181L1020.6879144576178 379.5676561608181L1021.302581718652 373.929673697538Q1025.1177578216236 373.3150064365037 1029.0177156157722 372.5519712159094Q1032.8964779871267 371.7889359953151 1036.0969868290638 371.110682465898Q1039.3186910937952 370.41123351368657 1041.2898654136638 369.96612963500655Q1043.2822351563268 369.49983033353226 1043.2822351563268 369.49983033353226L1043.2822351563268 369.49983033353226L1044.045270376921 371.3438321166351Q1043.4306031158867 372.8699025578237 1042.7523495864696 378.12636741080667Q1042.052900634258 383.3828322637896 1041.6077967555782 390.9495982013498Q1041.141497454104 398.4951687161156 1040.844761534984 407.41844171251006Q1040.5268301930696 416.3629101316988 1040.5268301930696 425.3497693964761L1040.5268301930696 425.3497693964761Q1040.5268301930696 429.7796127604819 1041.7561647151383 431.8355687715276Q1042.9643038144125 433.91272020536763 1045.8680767372298 433.91272020536763L1045.8680767372298 433.91272020536763Q1047.2457792188584 433.91272020536763 1049.2381489615211 433.7431568230134Q1051.2093232813897 433.5947888634534 1051.2093232813897 433.5947888634534L1051.2093232813897 433.5947888634534L1051.527254623304 434.20945612448764L1050.2979201012354 440.78003719071637Q1050.2979201012354 440.78003719071637 1049.0049993107841 440.6952554995392Q1047.7120785203326 440.6104738083621 1045.6349270864926 440.5468875399792Q1043.5789710754468 440.4621058488021 1041.2262791452808 440.3985195804192Q1038.852391792321 440.3137378892421 1036.7116540900981 440.3137378892421L1036.7116540900981 440.3137378892421Q1033.511145248161 440.3137378892421 1029.8443371047492 440.78003719071637Q1026.1775289613379 441.2251410693964 1023.591687380435 441.6914403708707Q1021.0058457995322 442.1365442495507 1021.0058457995322 442.1365442495507ZM1034.4225484283152 351.5049163811833L1034.4225484283152 351.5049163811833Q1030.6073723253437 351.5049163811833 1028.784565965035 349.0462473370461Q1026.9405641819321 346.60877371570325 1026.9405641819321 343.70500079288604L1026.9405641819321 343.70500079288604Q1026.9405641819321 340.05938807226886 1029.5476011856294 337.3887648001888Q1032.1334427665324 334.71814152810873 1035.9486188695037 334.71814152810873L1035.9486188695037 334.71814152810873Q1039.6154270129152 334.71814152810873 1041.523015064401 337.0708334582745Q1043.4306031158867 339.44472081123456 1043.4306031158867 342.4968616936118L1043.4306031158867 342.4968616936118Q1043.4306031158867 346.16366983702324 1040.9083478033667 348.8342931091033Q1038.3860924908467 351.5049163811833 1034.4225484283152 351.5049163811833ZM1088.7464170500705 442.1365442495507L1088.7464170500705 442.1365442495507Q1078.3818553036645 442.1365442495507 1074.1003798992188 437.939850536282Q1069.8400999175674 433.7431568230134 1069.8400999175674 423.6753309957275L1069.8400999175674 423.6753309957275L1069.8400999175674 386.13823722704683Q1069.8400999175674 382.0263252049553 1067.9960981344643 380.3306913814124Q1066.1732917741558 378.65625298066385 1061.1287811491156 378.50788502110385L1061.1287811491156 378.50788502110385L1060.5141138880813 377.59648184094954L1061.2771491086755 373.0182705173837Q1064.943957252087 371.1742687342808 1068.3776157447614 368.82157680411507Q1071.8112742374358 366.44768945115504 1074.4818975095159 364.2433654805493Q1077.152520781596 362.0178460871492 1078.6785912227847 360.5765573371378Q1080.2046616639732 359.13526858712635 1080.2046616639732 359.13526858712635L1080.2046616639732 359.13526858712635L1083.2568025463504 360.34340768640067Q1083.2568025463504 360.34340768640067 1082.875284936053 363.2471806092178Q1082.493767325756 366.15095353203503 1082.048663447076 371.7889359953151L1082.048663447076 371.7889359953151L1104.4734207634306 371.3438321166351L1104.939720064905 371.7889359953151L1103.5620175832764 379.8855875027324L1081.4339961860417 379.4192882012581Q1080.9676968845674 386.6045365285211 1080.6709609654474 396.2060630543327Q1080.353029623533 405.8287850029386 1080.353029623533 417.5710492309731L1080.353029623533 417.5710492309731Q1080.353029623533 425.3497693964761 1083.0236528956132 428.57147366120756Q1085.6942761676933 431.7719825031448 1092.264857233922 431.7719825031448L1092.264857233922 431.7719825031448Q1096.0800333368934 431.7719825031448 1099.3653238700078 430.3942800215162Q1102.650614403122 429.0165775398876 1102.650614403122 429.0165775398876L1102.650614403122 429.0165775398876L1104.1766848443108 432.98012160241905Q1104.1766848443108 432.98012160241905 1102.3326830612077 434.35782408404765Q1100.5098767008992 435.73552656567625 1097.8392534288191 437.55833292598487Q1095.1686301567393 439.40233470908777 1092.646374844219 440.78003719071637Q1090.124119531699 442.1365442495507 1088.7464170500705 442.1365442495507ZM1164.4564672712604 442.1365442495507L1164.4564672712604 442.1365442495507Q1158.352185506506 442.1365442495507 1154.9185270138316 439.0208170987906Q1151.4848685211573 435.88389452523626 1150.870201260123 429.7796127604819L1150.870201260123 429.7796127604819L1150.2555339990886 429.6312448009219Q1146.5887258556772 433.2980529443334 1143.3034353225628 435.9686762164134Q1140.0393402122427 438.63929948849346 1137.5170848997227 440.0805882385049Q1134.9948295872027 441.5430724113107 1133.468759146014 441.5430724113107L1133.468759146014 441.5430724113107Q1127.830776682734 441.5430724113107 1123.4009333187282 439.0844033671735Q1118.9710899547224 436.6469297458306 1116.4488346422024 432.3866497641791Q1113.9265793296822 428.10517435973327 1113.9265793296822 422.6155598560132L1113.9265793296822 422.6155598560132Q1113.9265793296822 418.1857164920074 1116.1520987230824 414.8368396905102Q1118.3564226936883 411.4667674662187 1122.0232308370996 410.4069963265044L1122.0232308370996 410.4069963265044L1151.018569219683 402.4587127786471L1151.166937179243 395.7609591756527Q1151.166937179243 388.13060696970973 1147.6696924181856 383.8491315652639Q1144.1512522343342 379.5676561608181 1137.75023455046 379.5676561608181L1137.75023455046 379.5676561608181Q1133.468759146014 379.5676561608181 1128.7421798628884 381.560025903481Q1124.0156005797626 383.5523956461439 1119.4373892561966 387.19800836676114L1119.4373892561966 387.19800836676114L1118.6743540356024 386.7529044880811L1116.8303522524996 380.1823234218524Q1120.793896315031 377.89321776006955 1125.690038980511 375.37096244754946Q1130.564986223197 372.8699025578237 1134.9948295872027 371.1742687342808Q1139.4246729512085 369.49983033353226 1141.7137786129915 369.49983033353226L1141.7137786129915 369.49983033353226Q1148.43272763878 369.49983033353226 1153.159306921906 371.8737176864923Q1157.8858862050315 374.22640961665803 1160.4081415175515 378.59266671228096Q1162.930396830072 382.9377283851096 1162.930396830072 389.190378109424L1162.930396830072 389.190378109424Q1162.930396830072 391.1827478520869 1162.5488792197746 395.59139579329843Q1162.1673616094774 400.0212391573042 1161.5526943484433 405.44726739264144Q1160.938027087409 410.8521002051844 1160.5565094771118 415.8966108302245Q1160.1749918668147 420.9411214552646 1160.1749918668147 424.28999825676175L1160.1749918668147 424.28999825676175Q1160.1749918668147 427.638875058259 1161.849430267563 429.4828768413619Q1163.523868668312 431.3056832016705 1166.427641591129 431.3056832016705L1166.427641591129 431.3056832016705Q1169.0346785948261 431.3056832016705 1171.6205201757289 430.01276241121906Q1174.2063617566318 428.71984162076757 1175.5840642382605 427.49050709869897L1175.5840642382605 427.49050709869897L1177.7248019404833 429.9279807200419Q1176.4954674184148 431.9203504627048 1174.439511407369 434.4426057752248Q1172.3835553963233 436.96486108774485 1169.8613000838031 439.0844033671735Q1167.3390447712832 441.2251410693964 1164.4564672712604 442.1365442495507ZM1136.054600726917 431.1573152421105L1136.054600726917 431.1573152421105Q1138.9583736497343 431.1573152421105 1142.858331443883 429.1013592310647Q1146.7370938152371 427.04540322001895 1149.9587980799688 423.8236989552875L1149.9587980799688 423.8236989552875L1150.721833300563 408.2662586242815L1129.9503189621626 414.5189083485959Q1125.541671020951 415.8966108302245 1125.541671020951 420.9411214552646L1125.541671020951 420.9411214552646Q1125.541671020951 425.2014014369161 1128.5090302121512 428.18995605091044Q1131.4763894033513 431.1573152421105 1136.054600726917 431.1573152421105ZM1228.0851264997073 442.1365442495507L1228.6997937607416 435.88389452523626Q1233.278005084307 434.675755425962 1235.2491794041757 432.3018680730019Q1237.2415491468387 429.9279807200419 1237.2415491468387 425.96443665751036L1237.2415491468387 425.96443665751036L1237.856216407873 395.7609591756527Q1237.856216407873 388.13060696970973 1234.5709258747588 383.9974995248239Q1231.2856353416444 379.8855875027324 1225.18135357689 379.8855875027324L1225.18135357689 379.8855875027324Q1221.5145454334786 379.8855875027324 1217.6993693305071 381.411657943921Q1213.8841932275354 382.9377283851096 1210.9168340363356 384.7605347454182Q1207.9494748451352 386.6045365285211 1206.4234044039467 387.8126756277954L1206.4234044039467 387.8126756277954Q1206.2538410215925 391.7762196903269 1206.0418867936496 397.20224792566415Q1205.8087371429124 402.6282761610014 1205.5755874921751 408.2662586242815Q1205.3424378414381 413.9042410875616 1205.1940698818782 418.4824524111274Q1205.0457019223181 423.0606637346932 1205.0457019223181 425.3497693964761L1205.0457019223181 425.3497693964761Q1205.0457019223181 430.09754410239617 1206.3386227127696 432.0051321538819Q1207.631543503221 433.91272020536763 1210.5353164260382 433.91272020536763L1210.5353164260382 433.91272020536763Q1211.9130189076668 433.91272020536763 1213.8841932275354 433.7431568230134Q1215.8765629701984 433.5947888634534 1215.8765629701984 433.5947888634534L1215.8765629701984 433.5947888634534L1216.1732988893184 434.20945612448764L1214.8167918304841 440.78003719071637Q1214.8167918304841 440.78003719071637 1212.5276861687012 440.6104738083621Q1210.2385805069184 440.4621058488021 1207.0168762421868 440.3985195804192Q1203.8163674002496 440.3137378892421 1200.9125944774323 440.3137378892421L1200.9125944774323 440.3137378892421Q1197.7120856354952 440.3137378892421 1194.2148408744379 440.5468875399792Q1190.6964006905864 440.78003719071637 1188.2589270692436 440.9919914186592Q1185.8214534479007 441.2251410693964 1185.8214534479007 441.2251410693964L1185.8214534479007 441.2251410693964L1186.584488668495 434.97249134508195Q1190.9931366097067 434.20945612448764 1192.8371383928095 432.2170863818248Q1194.659944753118 430.2459120619562 1194.659944753118 425.96443665751036L1194.659944753118 425.96443665751036L1194.659944753118 388.7240788079497Q1194.659944753118 383.5523956461439 1192.9855063523694 381.4752442123039Q1191.3110679516208 379.4192882012581 1187.177960506735 379.4192882012581L1187.177960506735 379.4192882012581L1185.5035221059866 379.4192882012581L1185.0584182273064 378.80462094022386L1185.5035221059866 373.781305737978Q1190.8447686501465 372.8699025578237 1195.7409113156266 371.8737176864923Q1200.6158585583125 370.8775328151608 1203.7527811318669 370.11449759456656Q1206.8685082826269 369.35146237397225 1206.8685082826269 369.35146237397225L1206.8685082826269 369.35146237397225L1207.779911462781 370.5807968960408Q1207.779911462781 370.5807968960408 1207.101657933364 373.632937778418Q1206.4234044039467 376.6850786607952 1206.1054730620326 380.6486227233267L1206.1054730620326 380.6486227233267L1206.4234044039467 381.0937266020067Q1207.779911462781 380.1823234218524 1210.7684660767754 378.27473537036667Q1213.7358252679755 376.36714731888094 1217.1694837606499 374.3959729990123Q1220.6031422533242 372.4036032563494 1223.8036510952616 370.962314506338Q1227.0253553599928 369.49983033353226 1228.8481617203015 369.49983033353226L1228.8481617203015 369.49983033353226Q1238.4708836689074 369.49983033353226 1244.1088661321874 374.84107687769233Q1249.7468485954678 380.1823234218524 1249.7468485954678 389.190378109424L1249.7468485954678 389.190378109424Q1249.7468485954678 391.1827478520869 1249.4501126763475 395.7609591756527Q1249.1533767572275 400.3391704992185 1248.6870774557533 405.97715296249856Q1248.2207781542788 411.6151354257787 1247.924042235159 416.80801401037877Q1247.627306316039 422.0008925949789 1247.627306316039 425.3497693964761L1247.627306316039 425.3497693964761Q1247.627306316039 429.7796127604819 1248.8354454153132 431.8355687715276Q1250.064779937382 433.91272020536763 1252.968552860199 433.91272020536763L1252.968552860199 433.91272020536763Q1254.3250599190333 433.91272020536763 1256.3174296616962 433.7431568230134Q1258.3097994043592 433.5947888634534 1258.3097994043592 433.5947888634534L1258.3097994043592 433.5947888634534L1258.6065353234792 434.20945612448764L1257.3772008014107 440.78003719071637Q1257.3772008014107 440.78003719071637 1256.084280010959 440.6952554995392Q1254.7913592205077 440.6104738083621 1252.7354032094618 440.5468875399792Q1250.6794471984163 440.4621058488021 1248.3055598454562 440.3985195804192Q1245.931672492496 440.3137378892421 1243.8121302130676 440.3137378892421L1243.8121302130676 440.3137378892421Q1241.3534611689302 440.3137378892421 1238.6828378968503 440.6104738083621Q1236.0122146247702 440.9284051502764 1233.5747410034273 441.2251410693964Q1231.1372673820842 441.5430724113107 1229.6111969408958 441.8398083304307Q1228.0851264997073 442.1365442495507 1228.0851264997073 442.1365442495507L1228.0851264997073 442.1365442495507ZM1297.5213315737883 442.1365442495507L1297.5213315737883 442.1365442495507Q1288.8312082281313 442.1365442495507 1282.1122592023426 437.87626426789916Q1275.3933101765538 433.5947888634534 1271.6629157647594 425.9008503891275Q1267.9113259301707 418.1857164920074 1267.9113259301707 408.2662586242815L1267.9113259301707 408.2662586242815Q1267.9113259301707 397.28702961684127 1272.5743189449136 388.51212458000686Q1277.2161165368625 379.73721954317244 1285.3127680442794 374.60792722695516Q1293.4094195516968 369.49983033353226 1303.3288774194227 369.49983033353226L1303.3288774194227 369.49983033353226Q1312.0190007650804 369.49983033353226 1318.7379497908687 373.781305737978Q1325.4568988166575 378.0415857196295 1329.1872932284518 385.67193792557254Q1332.9176876402462 393.3022901315155 1332.9176876402462 403.3913113815957L1332.9176876402462 403.3913113815957Q1332.9176876402462 414.2221724294759 1328.2758900482975 423.0606637346932Q1323.6128970335546 431.9203504627048 1315.6010272173144 437.02844735612774Q1307.5891574010743 442.1365442495507 1297.5213315737883 442.1365442495507ZM1301.8028069782342 434.675755425962L1301.8028069782342 434.675755425962Q1310.3445623643315 434.675755425962 1315.3678775665774 427.72365674943615Q1320.4123881916175 420.7715580729103 1320.4123881916175 408.8809258853158L1320.4123881916175 408.8809258853158Q1320.4123881916175 399.7245032381842 1317.6569832283603 392.7088182932755Q1314.9227736878975 385.67193792557254 1310.0266310224172 381.708393863041Q1305.1516837797312 377.74484980050954 1298.750666095857 377.74484980050954L1298.750666095857 377.74484980050954Q1290.1877152869654 377.74484980050954 1285.1644000847195 384.7605347454182Q1280.1198894596796 391.7762196903269 1280.1198894596796 403.8364152602757L1280.1198894596796 403.8364152602757Q1280.1198894596796 412.9928379074073 1282.8752944229368 419.94493658393316Q1285.6095039633997 426.87583983766467 1290.5056466288797 430.7757976318133Q1295.3805938715655 434.675755425962 1301.8028069782342 434.675755425962ZM1355.045709037481 442.1365442495507L1355.045709037481 442.1365442495507Q1350.7854290558294 442.1365442495507 1348.6446913536065 439.4659209774706Q1346.5039536513837 436.7952977053906 1346.5039536513837 433.4464209038934L1346.5039536513837 433.4464209038934Q1346.5039536513837 429.4828768413619 1349.1109906550807 426.7274718781047Q1351.6968322359837 423.9932623376418 1355.9783076404296 423.9932623376418L1355.9783076404296 423.9932623376418Q1360.238587622081 423.9932623376418 1362.4641070154812 426.57910391854466Q1364.6684309860866 429.1649454994476 1364.6684309860866 432.6833856832991L1364.6684309860866 432.6833856832991Q1364.6684309860866 436.49856178627056 1362.0825894051839 439.3175530179106Q1359.4755524014868 442.1365442495507 1355.045709037481 442.1365442495507ZM1385.5671178612529 442.1365442495507L1385.5671178612529 442.1365442495507L1386.1817851222872 435.88389452523626Q1390.759996445853 434.675755425962 1392.7523661885157 432.3018680730019Q1394.7235405083845 429.9279807200419 1394.7235405083845 425.96443665751036L1394.7235405083845 425.96443665751036L1394.7235405083845 387.19800836676114Q1394.7235405083845 382.9377283851096 1393.36703344955 380.9453586424467Q1391.9893309679214 378.97418432257814 1389.0855580451043 378.97418432257814L1389.0855580451043 378.97418432257814Q1387.8562235230356 378.97418432257814 1386.5633027325844 379.2709202416981Q1385.2703819421329 379.5676561608181 1385.2703819421329 379.5676561608181L1385.2703819421329 379.5676561608181L1385.885049203167 373.929673697538Q1389.7002253061387 373.3150064365037 1393.578987677493 372.5519712159094Q1397.4789454716415 371.7889359953151 1400.6794543135788 371.110682465898Q1403.8799631555162 370.41123351368657 1405.872332898179 369.96612963500655Q1407.8647026408416 369.49983033353226 1407.8647026408416 369.49983033353226L1407.8647026408416 369.49983033353226L1408.6277378614361 371.3438321166351Q1408.013070600402 372.8699025578237 1407.3136216481903 378.12636741080667Q1406.6353681187734 383.3828322637896 1406.169068817299 390.9495982013498Q1405.7239649386188 398.4951687161156 1405.4060335967047 407.41844171251006Q1405.1092976775844 416.3629101316988 1405.1092976775844 425.3497693964761L1405.1092976775844 425.3497693964761Q1405.1092976775844 429.7796127604819 1406.3386321996531 431.8355687715276Q1407.5467712989275 433.91272020536763 1410.4505442217446 433.91272020536763L1410.4505442217446 433.91272020536763Q1411.8282467033732 433.91272020536763 1413.7994210232418 433.7431568230134Q1415.7917907659048 433.5947888634534 1415.7917907659048 433.5947888634534L1415.7917907659048 433.5947888634534L1416.0885266850246 434.20945612448764L1414.8803875857507 440.78003719071637Q1414.8803875857507 440.78003719071637 1413.587466795299 440.6952554995392Q1412.2733505820534 440.6104738083621 1410.2173945710076 440.5468875399792Q1408.1614385599619 440.4621058488021 1405.7875512070018 440.3985195804192Q1403.434859276836 440.3137378892421 1401.2941215746132 440.3137378892421L1401.2941215746132 440.3137378892421Q1398.0936127326759 440.3137378892421 1394.4268045892645 440.78003719071637Q1390.759996445853 441.2251410693964 1388.1741548649502 441.6914403708707Q1385.5671178612529 442.1365442495507 1385.5671178612529 442.1365442495507ZM1399.0050159128302 351.5049163811833L1399.0050159128302 351.5049163811833Q1395.1898398098588 351.5049163811833 1393.36703344955 349.0462473370461Q1391.5230316664474 346.60877371570325 1391.5230316664474 343.70500079288604L1391.5230316664474 343.70500079288604Q1391.5230316664474 340.05938807226886 1394.1300686701445 337.3887648001888Q1396.7159102510473 334.71814152810873 1400.531086354019 334.71814152810873L1400.531086354019 334.71814152810873Q1404.1978944974303 334.71814152810873 1406.1054825489161 337.0708334582745Q1408.013070600402 339.44472081123456 1408.013070600402 342.4968616936118L1408.013070600402 342.4968616936118Q1408.013070600402 346.16366983702324 1405.4908152878816 348.8342931091033Q1402.9685599753616 351.5049163811833 1399.0050159128302 351.5049163811833ZM1456.9956926779969 442.1365442495507L1456.9956926779969 442.1365442495507Q1448.3055693323397 442.1365442495507 1441.5866203065511 437.87626426789916Q1434.8676712807624 433.5947888634534 1431.137276868968 425.9008503891275Q1427.3856870343793 418.1857164920074 1427.3856870343793 408.2662586242815L1427.3856870343793 408.2662586242815Q1427.3856870343793 397.28702961684127 1432.0486800491221 388.51212458000686Q1436.6904776410709 379.73721954317244 1444.787129148488 374.60792722695516Q1452.8837806559054 369.49983033353226 1462.8032385236315 369.49983033353226L1462.8032385236315 369.49983033353226Q1471.4933618692887 369.49983033353226 1478.2123108950773 373.781305737978Q1484.931259920866 378.0415857196295 1488.6616543326604 385.67193792557254Q1492.3920487444548 393.3022901315155 1492.3920487444548 403.3913113815957L1492.3920487444548 403.3913113815957Q1492.3920487444548 414.2221724294759 1487.750251152506 423.0606637346932Q1483.087258137763 431.9203504627048 1475.075388321523 437.02844735612774Q1467.063518505283 442.1365442495507 1456.9956926779969 442.1365442495507ZM1461.2771680824426 434.675755425962L1461.2771680824426 434.675755425962Q1469.81892346854 434.675755425962 1474.8422386707857 427.72365674943615Q1479.886749295826 420.7715580729103 1479.886749295826 408.8809258853158L1479.886749295826 408.8809258853158Q1479.886749295826 399.7245032381842 1477.1313443325687 392.7088182932755Q1474.3971347921058 385.67193792557254 1469.500992126626 381.708393863041Q1464.62604488394 377.74484980050954 1458.2250272000656 377.74484980050954L1458.2250272000656 377.74484980050954Q1449.6620763911742 377.74484980050954 1444.6387611889281 384.7605347454182Q1439.5942505638882 391.7762196903269 1439.5942505638882 403.8364152602757L1439.5942505638882 403.8364152602757Q1439.5942505638882 412.9928379074073 1442.3496555271454 419.94493658393316Q1445.0838650676083 426.87583983766467 1449.9800077330883 430.7757976318133Q1454.854954975774 434.675755425962 1461.2771680824426 434.675755425962Z " fill="#616161" transform="matrix(0.5863071111390695,0,0,0.5863071111390696,0,64.25309777471573)"/></g></svg>